<?xml version="1.0" encoding="us-ascii" standalone="no"?><svg xmlns="http://www.w3.org/2000/svg" xmlns:xlink="http://www.w3.org/1999/xlink" contentStyleType="text/css" height="702px" preserveAspectRatio="none" style="width:981px;height:702px;background:#FFFFFF;" version="1.1" viewBox="0 0 981 702" width="981px" zoomAndPan="magnify"><defs/><g><!--class FortranComment--><g id="elem_FortranComment"><rect codeLine="7" fill="#F1F1F1" height="32" id="FortranComment" rx="2.5" ry="2.5" style="stroke:#181818;stroke-width:0.5;" width="157" x="605" y="187"/><ellipse cx="620" cy="203" fill="#C2C2C2" rx="11" ry="11" style="stroke:#181818;stroke-width:1.0;"/><path d="M622.3438,198.6719 C621.4063,198.2344 620.8125,198.0938 619.9375,198.0938 C617.3125,198.0938 615.3125,200.1719 615.3125,202.8906 L615.3125,204.0156 C615.3125,206.5938 617.4219,208.4844 620.3125,208.4844 C621.5313,208.4844 622.6875,208.1875 623.4375,207.6406 C624.0156,207.2344 624.3438,206.7813 624.3438,206.3906 C624.3438,205.9375 623.9531,205.5469 623.4844,205.5469 C623.2656,205.5469 623.0625,205.625 622.875,205.8125 C622.4219,206.2969 622.4219,206.2969 622.2344,206.3906 C621.8125,206.6563 621.125,206.7813 620.3594,206.7813 C618.3125,206.7813 617.0156,205.6875 617.0156,203.9844 L617.0156,202.8906 C617.0156,201.1094 618.2656,199.7969 620,199.7969 C620.5781,199.7969 621.1875,199.9531 621.6563,200.2031 C622.1406,200.4844 622.3125,200.7031 622.4063,201.1094 C622.4688,201.5156 622.5,201.6406 622.6406,201.7656 C622.7813,201.9063 623.0156,202.0156 623.2344,202.0156 C623.5,202.0156 623.7656,201.875 623.9375,201.6563 C624.0469,201.5 624.0781,201.3125 624.0781,200.8906 L624.0781,199.4688 C624.0781,199.0313 624.0625,198.9063 623.9688,198.75 C623.8125,198.4844 623.5313,198.3438 623.2344,198.3438 C622.9375,198.3438 622.7344,198.4375 622.5156,198.75 L622.3438,198.6719 Z " fill="#000000"/><text fill="#000000" font-family="sans-serif" font-size="14" lengthAdjust="spacing" textLength="125" x="634" y="207.8467">FortranComment</text></g><!--class FortranFunction--><g id="elem_FortranFunction"><rect codeLine="8" fill="#F1F1F1" height="32" id="FortranFunction" rx="2.5" ry="2.5" style="stroke:#181818;stroke-width:0.5;" width="147" x="610" y="120"/><ellipse cx="625" cy="136" fill="#C2C2C2" rx="11" ry="11" style="stroke:#181818;stroke-width:1.0;"/><path d="M627.3438,131.6719 C626.4063,131.2344 625.8125,131.0938 624.9375,131.0938 C622.3125,131.0938 620.3125,133.1719 620.3125,135.8906 L620.3125,137.0156 C620.3125,139.5938 622.4219,141.4844 625.3125,141.4844 C626.5313,141.4844 627.6875,141.1875 628.4375,140.6406 C629.0156,140.2344 629.3438,139.7813 629.3438,139.3906 C629.3438,138.9375 628.9531,138.5469 628.4844,138.5469 C628.2656,138.5469 628.0625,138.625 627.875,138.8125 C627.4219,139.2969 627.4219,139.2969 627.2344,139.3906 C626.8125,139.6563 626.125,139.7813 625.3594,139.7813 C623.3125,139.7813 622.0156,138.6875 622.0156,136.9844 L622.0156,135.8906 C622.0156,134.1094 623.2656,132.7969 625,132.7969 C625.5781,132.7969 626.1875,132.9531 626.6563,133.2031 C627.1406,133.4844 627.3125,133.7031 627.4063,134.1094 C627.4688,134.5156 627.5,134.6406 627.6406,134.7656 C627.7813,134.9063 628.0156,135.0156 628.2344,135.0156 C628.5,135.0156 628.7656,134.875 628.9375,134.6563 C629.0469,134.5 629.0781,134.3125 629.0781,133.8906 L629.0781,132.4688 C629.0781,132.0313 629.0625,131.9063 628.9688,131.75 C628.8125,131.4844 628.5313,131.3438 628.2344,131.3438 C627.9375,131.3438 627.7344,131.4375 627.5156,131.75 L627.3438,131.6719 Z " fill="#000000"/><text fill="#000000" font-family="sans-serif" font-size="14" lengthAdjust="spacing" textLength="115" x="639" y="140.8467">FortranFunction</text></g><!--class EsopeEntity--><g id="elem_EsopeEntity"><rect codeLine="9" fill="#F1F1F1" height="32" id="EsopeEntity" rx="2.5" ry="2.5" style="stroke:#181818;stroke-width:0.5;" width="120" x="402" y="120"/><ellipse cx="417" cy="136" fill="#C2C2C2" rx="11" ry="11" style="stroke:#181818;stroke-width:1.0;"/><path d="M419.3438,131.6719 C418.4063,131.2344 417.8125,131.0938 416.9375,131.0938 C414.3125,131.0938 412.3125,133.1719 412.3125,135.8906 L412.3125,137.0156 C412.3125,139.5938 414.4219,141.4844 417.3125,141.4844 C418.5313,141.4844 419.6875,141.1875 420.4375,140.6406 C421.0156,140.2344 421.3438,139.7813 421.3438,139.3906 C421.3438,138.9375 420.9531,138.5469 420.4844,138.5469 C420.2656,138.5469 420.0625,138.625 419.875,138.8125 C419.4219,139.2969 419.4219,139.2969 419.2344,139.3906 C418.8125,139.6563 418.125,139.7813 417.3594,139.7813 C415.3125,139.7813 414.0156,138.6875 414.0156,136.9844 L414.0156,135.8906 C414.0156,134.1094 415.2656,132.7969 417,132.7969 C417.5781,132.7969 418.1875,132.9531 418.6563,133.2031 C419.1406,133.4844 419.3125,133.7031 419.4063,134.1094 C419.4688,134.5156 419.5,134.6406 419.6406,134.7656 C419.7813,134.9063 420.0156,135.0156 420.2344,135.0156 C420.5,135.0156 420.7656,134.875 420.9375,134.6563 C421.0469,134.5 421.0781,134.3125 421.0781,133.8906 L421.0781,132.4688 C421.0781,132.0313 421.0625,131.9063 420.9688,131.75 C420.8125,131.4844 420.5313,131.3438 420.2344,131.3438 C419.9375,131.3438 419.7344,131.4375 419.5156,131.75 L419.3438,131.6719 Z " fill="#000000"/><text fill="#000000" font-family="sans-serif" font-size="14" lengthAdjust="spacing" textLength="88" x="431" y="140.8467">EsopeEntity</text></g><!--class EsopeFunction--><g id="elem_EsopeFunction"><rect codeLine="10" fill="#F1F1F1" height="32" id="EsopeFunction" rx="2.5" ry="2.5" style="stroke:#181818;stroke-width:0.5;" width="136" x="142" y="74"/><ellipse cx="157" cy="90" fill="#CDCDCD" rx="11" ry="11" style="stroke:#181818;stroke-width:1.0;"/><path d="M159.0781,91.8125 L159.4688,92.7969 L159.0781,92.7969 C158.625,92.7969 158.5156,92.8125 158.3594,92.9219 C158.1094,93.0781 157.9531,93.3594 157.9531,93.6563 C157.9531,93.9219 158.0938,94.1719 158.3125,94.3281 C158.4531,94.4531 158.6563,94.5 159.0781,94.5 L161.4375,94.5 C161.7969,94.5 162.0156,94.4688 162.1563,94.375 C162.4063,94.2344 162.5625,93.9375 162.5625,93.6563 C162.5625,93.375 162.4219,93.125 162.2031,92.9688 C162.0313,92.8281 161.875,92.7969 161.4063,92.7969 L158.0156,84.5938 L154.3438,84.5938 C153.8906,84.5938 153.7656,84.6094 153.6094,84.7031 C153.3594,84.875 153.2031,85.1563 153.2031,85.4375 C153.2031,85.7188 153.3438,85.9688 153.5625,86.1406 C153.7344,86.25 153.9063,86.2813 154.3438,86.2813 L155.4219,86.2813 L152.7813,92.7969 C152.3594,92.7969 152.2031,92.8125 152.0469,92.9219 C151.7969,93.0781 151.6406,93.3594 151.6406,93.6563 C151.6406,94.2188 152.0156,94.5 152.7656,94.5 L155.0313,94.5 C155.3906,94.5 155.6094,94.4688 155.7344,94.375 C156,94.2344 156.1406,93.9375 156.1406,93.6563 C156.1406,93.375 156.0156,93.125 155.7969,92.9531 C155.625,92.8281 155.4844,92.7969 155.0313,92.7969 L154.6406,92.7969 L155.0313,91.8125 L159.0781,91.8125 Z M158.375,90.1094 L155.7031,90.1094 L157.0469,86.8438 L158.375,90.1094 Z " fill="#000000"/><text fill="#000000" font-family="sans-serif" font-size="14" font-style="italic" lengthAdjust="spacing" textLength="104" x="171" y="94.8467">EsopeFunction</text></g><!--class Segment--><g id="elem_Segment"><rect codeLine="11" fill="#F1F1F1" height="32" id="Segment" rx="2.5" ry="2.5" style="stroke:#181818;stroke-width:0.5;" width="98" x="161" y="221"/><ellipse cx="176" cy="237" fill="#C2C2C2" rx="11" ry="11" style="stroke:#181818;stroke-width:1.0;"/><path d="M178.3438,232.6719 C177.4063,232.2344 176.8125,232.0938 175.9375,232.0938 C173.3125,232.0938 171.3125,234.1719 171.3125,236.8906 L171.3125,238.0156 C171.3125,240.5938 173.4219,242.4844 176.3125,242.4844 C177.5313,242.4844 178.6875,242.1875 179.4375,241.6406 C180.0156,241.2344 180.3438,240.7813 180.3438,240.3906 C180.3438,239.9375 179.9531,239.5469 179.4844,239.5469 C179.2656,239.5469 179.0625,239.625 178.875,239.8125 C178.4219,240.2969 178.4219,240.2969 178.2344,240.3906 C177.8125,240.6563 177.125,240.7813 176.3594,240.7813 C174.3125,240.7813 173.0156,239.6875 173.0156,237.9844 L173.0156,236.8906 C173.0156,235.1094 174.2656,233.7969 176,233.7969 C176.5781,233.7969 177.1875,233.9531 177.6563,234.2031 C178.1406,234.4844 178.3125,234.7031 178.4063,235.1094 C178.4688,235.5156 178.5,235.6406 178.6406,235.7656 C178.7813,235.9063 179.0156,236.0156 179.2344,236.0156 C179.5,236.0156 179.7656,235.875 179.9375,235.6563 C180.0469,235.5 180.0781,235.3125 180.0781,234.8906 L180.0781,233.4688 C180.0781,233.0313 180.0625,232.9063 179.9688,232.75 C179.8125,232.4844 179.5313,232.3438 179.2344,232.3438 C178.9375,232.3438 178.7344,232.4375 178.5156,232.75 L178.3438,232.6719 Z " fill="#000000"/><text fill="#000000" font-family="sans-serif" font-size="14" lengthAdjust="spacing" textLength="66" x="190" y="241.8467">Segment</text></g><!--class Attribute--><g id="elem_Attribute"><rect codeLine="12" fill="#F1F1F1" height="32" id="Attribute" rx="2.5" ry="2.5" style="stroke:#181818;stroke-width:0.5;" width="100" x="412" y="321"/><ellipse cx="427" cy="337" fill="#C2C2C2" rx="11" ry="11" style="stroke:#181818;stroke-width:1.0;"/><path d="M429.3438,332.6719 C428.4063,332.2344 427.8125,332.0938 426.9375,332.0938 C424.3125,332.0938 422.3125,334.1719 422.3125,336.8906 L422.3125,338.0156 C422.3125,340.5938 424.4219,342.4844 427.3125,342.4844 C428.5313,342.4844 429.6875,342.1875 430.4375,341.6406 C431.0156,341.2344 431.3438,340.7813 431.3438,340.3906 C431.3438,339.9375 430.9531,339.5469 430.4844,339.5469 C430.2656,339.5469 430.0625,339.625 429.875,339.8125 C429.4219,340.2969 429.4219,340.2969 429.2344,340.3906 C428.8125,340.6563 428.125,340.7813 427.3594,340.7813 C425.3125,340.7813 424.0156,339.6875 424.0156,337.9844 L424.0156,336.8906 C424.0156,335.1094 425.2656,333.7969 427,333.7969 C427.5781,333.7969 428.1875,333.9531 428.6563,334.2031 C429.1406,334.4844 429.3125,334.7031 429.4063,335.1094 C429.4688,335.5156 429.5,335.6406 429.6406,335.7656 C429.7813,335.9063 430.0156,336.0156 430.2344,336.0156 C430.5,336.0156 430.7656,335.875 430.9375,335.6563 C431.0469,335.5 431.0781,335.3125 431.0781,334.8906 L431.0781,333.4688 C431.0781,333.0313 431.0625,332.9063 430.9688,332.75 C430.8125,332.4844 430.5313,332.3438 430.2344,332.3438 C429.9375,332.3438 429.7344,332.4375 429.5156,332.75 L429.3438,332.6719 Z " fill="#000000"/><text fill="#000000" font-family="sans-serif" font-size="14" lengthAdjust="spacing" textLength="68" x="441" y="341.8467">Attribute</text></g><!--class EsoAt--><g id="elem_EsoAt"><rect codeLine="13" fill="#F1F1F1" height="32" id="EsoAt" rx="2.5" ry="2.5" style="stroke:#181818;stroke-width:0.5;" width="74" x="7" y="7"/><ellipse cx="22" cy="23" fill="#C2C2C2" rx="11" ry="11" style="stroke:#181818;stroke-width:1.0;"/><path d="M24.3438,18.6719 C23.4063,18.2344 22.8125,18.0938 21.9375,18.0938 C19.3125,18.0938 17.3125,20.1719 17.3125,22.8906 L17.3125,24.0156 C17.3125,26.5938 19.4219,28.4844 22.3125,28.4844 C23.5313,28.4844 24.6875,28.1875 25.4375,27.6406 C26.0156,27.2344 26.3438,26.7813 26.3438,26.3906 C26.3438,25.9375 25.9531,25.5469 25.4844,25.5469 C25.2656,25.5469 25.0625,25.625 24.875,25.8125 C24.4219,26.2969 24.4219,26.2969 24.2344,26.3906 C23.8125,26.6563 23.125,26.7813 22.3594,26.7813 C20.3125,26.7813 19.0156,25.6875 19.0156,23.9844 L19.0156,22.8906 C19.0156,21.1094 20.2656,19.7969 22,19.7969 C22.5781,19.7969 23.1875,19.9531 23.6563,20.2031 C24.1406,20.4844 24.3125,20.7031 24.4063,21.1094 C24.4688,21.5156 24.5,21.6406 24.6406,21.7656 C24.7813,21.9063 25.0156,22.0156 25.2344,22.0156 C25.5,22.0156 25.7656,21.875 25.9375,21.6563 C26.0469,21.5 26.0781,21.3125 26.0781,20.8906 L26.0781,19.4688 C26.0781,19.0313 26.0625,18.9063 25.9688,18.75 C25.8125,18.4844 25.5313,18.3438 25.2344,18.3438 C24.9375,18.3438 24.7344,18.4375 24.5156,18.75 L24.3438,18.6719 Z " fill="#000000"/><text fill="#000000" font-family="sans-serif" font-size="14" lengthAdjust="spacing" textLength="42" x="36" y="27.8467">EsoAt</text></g><!--class EsoAr--><g id="elem_EsoAr"><rect codeLine="14" fill="#F1F1F1" height="32" id="EsoAr" rx="2.5" ry="2.5" style="stroke:#181818;stroke-width:0.5;" width="73" x="7.5" y="74"/><ellipse cx="22.5" cy="90" fill="#C2C2C2" rx="11" ry="11" style="stroke:#181818;stroke-width:1.0;"/><path d="M24.8438,85.6719 C23.9063,85.2344 23.3125,85.0938 22.4375,85.0938 C19.8125,85.0938 17.8125,87.1719 17.8125,89.8906 L17.8125,91.0156 C17.8125,93.5938 19.9219,95.4844 22.8125,95.4844 C24.0313,95.4844 25.1875,95.1875 25.9375,94.6406 C26.5156,94.2344 26.8438,93.7813 26.8438,93.3906 C26.8438,92.9375 26.4531,92.5469 25.9844,92.5469 C25.7656,92.5469 25.5625,92.625 25.375,92.8125 C24.9219,93.2969 24.9219,93.2969 24.7344,93.3906 C24.3125,93.6563 23.625,93.7813 22.8594,93.7813 C20.8125,93.7813 19.5156,92.6875 19.5156,90.9844 L19.5156,89.8906 C19.5156,88.1094 20.7656,86.7969 22.5,86.7969 C23.0781,86.7969 23.6875,86.9531 24.1563,87.2031 C24.6406,87.4844 24.8125,87.7031 24.9063,88.1094 C24.9688,88.5156 25,88.6406 25.1406,88.7656 C25.2813,88.9063 25.5156,89.0156 25.7344,89.0156 C26,89.0156 26.2656,88.875 26.4375,88.6563 C26.5469,88.5 26.5781,88.3125 26.5781,87.8906 L26.5781,86.4688 C26.5781,86.0313 26.5625,85.9063 26.4688,85.75 C26.3125,85.4844 26.0313,85.3438 25.7344,85.3438 C25.4375,85.3438 25.2344,85.4375 25.0156,85.75 L24.8438,85.6719 Z " fill="#000000"/><text fill="#000000" font-family="sans-serif" font-size="14" lengthAdjust="spacing" textLength="41" x="36.5" y="94.8467">EsoAr</text></g><!--class EsoSl--><g id="elem_EsoSl"><rect codeLine="15" fill="#F1F1F1" height="32" id="EsoSl" rx="2.5" ry="2.5" style="stroke:#181818;stroke-width:0.5;" width="70" x="9" y="141"/><ellipse cx="24" cy="157" fill="#C2C2C2" rx="11" ry="11" style="stroke:#181818;stroke-width:1.0;"/><path d="M26.3438,152.6719 C25.4063,152.2344 24.8125,152.0938 23.9375,152.0938 C21.3125,152.0938 19.3125,154.1719 19.3125,156.8906 L19.3125,158.0156 C19.3125,160.5938 21.4219,162.4844 24.3125,162.4844 C25.5313,162.4844 26.6875,162.1875 27.4375,161.6406 C28.0156,161.2344 28.3438,160.7813 28.3438,160.3906 C28.3438,159.9375 27.9531,159.5469 27.4844,159.5469 C27.2656,159.5469 27.0625,159.625 26.875,159.8125 C26.4219,160.2969 26.4219,160.2969 26.2344,160.3906 C25.8125,160.6563 25.125,160.7813 24.3594,160.7813 C22.3125,160.7813 21.0156,159.6875 21.0156,157.9844 L21.0156,156.8906 C21.0156,155.1094 22.2656,153.7969 24,153.7969 C24.5781,153.7969 25.1875,153.9531 25.6563,154.2031 C26.1406,154.4844 26.3125,154.7031 26.4063,155.1094 C26.4688,155.5156 26.5,155.6406 26.6406,155.7656 C26.7813,155.9063 27.0156,156.0156 27.2344,156.0156 C27.5,156.0156 27.7656,155.875 27.9375,155.6563 C28.0469,155.5 28.0781,155.3125 28.0781,154.8906 L28.0781,153.4688 C28.0781,153.0313 28.0625,152.9063 27.9688,152.75 C27.8125,152.4844 27.5313,152.3438 27.2344,152.3438 C26.9375,152.3438 26.7344,152.4375 26.5156,152.75 L26.3438,152.6719 Z " fill="#000000"/><text fill="#000000" font-family="sans-serif" font-size="14" lengthAdjust="spacing" textLength="38" x="38" y="161.8467">EsoSl</text></g><!--class SegmentUse--><g id="elem_SegmentUse"><rect codeLine="16" fill="#F1F1F1" height="32" id="SegmentUse" rx="2.5" ry="2.5" style="stroke:#181818;stroke-width:0.5;" width="122" x="837.5" y="496"/><ellipse cx="852.5" cy="512" fill="#CDCDCD" rx="11" ry="11" style="stroke:#181818;stroke-width:1.0;"/><path d="M854.5781,513.8125 L854.9688,514.7969 L854.5781,514.7969 C854.125,514.7969 854.0156,514.8125 853.8594,514.9219 C853.6094,515.0781 853.4531,515.3594 853.4531,515.6563 C853.4531,515.9219 853.5938,516.1719 853.8125,516.3281 C853.9531,516.4531 854.1563,516.5 854.5781,516.5 L856.9375,516.5 C857.2969,516.5 857.5156,516.4688 857.6563,516.375 C857.9063,516.2344 858.0625,515.9375 858.0625,515.6563 C858.0625,515.375 857.9219,515.125 857.7031,514.9688 C857.5313,514.8281 857.375,514.7969 856.9063,514.7969 L853.5156,506.5938 L849.8438,506.5938 C849.3906,506.5938 849.2656,506.6094 849.1094,506.7031 C848.8594,506.875 848.7031,507.1563 848.7031,507.4375 C848.7031,507.7188 848.8438,507.9688 849.0625,508.1406 C849.2344,508.25 849.4063,508.2813 849.8438,508.2813 L850.9219,508.2813 L848.2813,514.7969 C847.8594,514.7969 847.7031,514.8125 847.5469,514.9219 C847.2969,515.0781 847.1406,515.3594 847.1406,515.6563 C847.1406,516.2188 847.5156,516.5 848.2656,516.5 L850.5313,516.5 C850.8906,516.5 851.1094,516.4688 851.2344,516.375 C851.5,516.2344 851.6406,515.9375 851.6406,515.6563 C851.6406,515.375 851.5156,515.125 851.2969,514.9531 C851.125,514.8281 850.9844,514.7969 850.5313,514.7969 L850.1406,514.7969 L850.5313,513.8125 L854.5781,513.8125 Z M853.875,512.1094 L851.2031,512.1094 L852.5469,508.8438 L853.875,512.1094 Z " fill="#000000"/><text fill="#000000" font-family="sans-serif" font-size="14" font-style="italic" lengthAdjust="spacing" textLength="90" x="866.5" y="516.8467">SegmentUse</text></g><!--class SegIni--><g id="elem_SegIni"><rect codeLine="17" fill="#F1F1F1" height="32" id="SegIni" rx="2.5" ry="2.5" style="stroke:#181818;stroke-width:0.5;" width="76" x="645.5" y="596"/><ellipse cx="660.5" cy="612" fill="#C2C2C2" rx="11" ry="11" style="stroke:#181818;stroke-width:1.0;"/><path d="M662.8438,607.6719 C661.9063,607.2344 661.3125,607.0938 660.4375,607.0938 C657.8125,607.0938 655.8125,609.1719 655.8125,611.8906 L655.8125,613.0156 C655.8125,615.5938 657.9219,617.4844 660.8125,617.4844 C662.0313,617.4844 663.1875,617.1875 663.9375,616.6406 C664.5156,616.2344 664.8438,615.7813 664.8438,615.3906 C664.8438,614.9375 664.4531,614.5469 663.9844,614.5469 C663.7656,614.5469 663.5625,614.625 663.375,614.8125 C662.9219,615.2969 662.9219,615.2969 662.7344,615.3906 C662.3125,615.6563 661.625,615.7813 660.8594,615.7813 C658.8125,615.7813 657.5156,614.6875 657.5156,612.9844 L657.5156,611.8906 C657.5156,610.1094 658.7656,608.7969 660.5,608.7969 C661.0781,608.7969 661.6875,608.9531 662.1563,609.2031 C662.6406,609.4844 662.8125,609.7031 662.9063,610.1094 C662.9688,610.5156 663,610.6406 663.1406,610.7656 C663.2813,610.9063 663.5156,611.0156 663.7344,611.0156 C664,611.0156 664.2656,610.875 664.4375,610.6563 C664.5469,610.5 664.5781,610.3125 664.5781,609.8906 L664.5781,608.4688 C664.5781,608.0313 664.5625,607.9063 664.4688,607.75 C664.3125,607.4844 664.0313,607.3438 663.7344,607.3438 C663.4375,607.3438 663.2344,607.4375 663.0156,607.75 L662.8438,607.6719 Z " fill="#000000"/><text fill="#000000" font-family="sans-serif" font-size="14" lengthAdjust="spacing" textLength="44" x="674.5" y="616.8467">SegIni</text></g><!--class SegAct--><g id="elem_SegAct"><rect codeLine="18" fill="#F1F1F1" height="32" id="SegAct" rx="2.5" ry="2.5" style="stroke:#181818;stroke-width:0.5;" width="84" x="641.5" y="663"/><ellipse cx="656.5" cy="679" fill="#C2C2C2" rx="11" ry="11" style="stroke:#181818;stroke-width:1.0;"/><path d="M658.8438,674.6719 C657.9063,674.2344 657.3125,674.0938 656.4375,674.0938 C653.8125,674.0938 651.8125,676.1719 651.8125,678.8906 L651.8125,680.0156 C651.8125,682.5938 653.9219,684.4844 656.8125,684.4844 C658.0313,684.4844 659.1875,684.1875 659.9375,683.6406 C660.5156,683.2344 660.8438,682.7813 660.8438,682.3906 C660.8438,681.9375 660.4531,681.5469 659.9844,681.5469 C659.7656,681.5469 659.5625,681.625 659.375,681.8125 C658.9219,682.2969 658.9219,682.2969 658.7344,682.3906 C658.3125,682.6563 657.625,682.7813 656.8594,682.7813 C654.8125,682.7813 653.5156,681.6875 653.5156,679.9844 L653.5156,678.8906 C653.5156,677.1094 654.7656,675.7969 656.5,675.7969 C657.0781,675.7969 657.6875,675.9531 658.1563,676.2031 C658.6406,676.4844 658.8125,676.7031 658.9063,677.1094 C658.9688,677.5156 659,677.6406 659.1406,677.7656 C659.2813,677.9063 659.5156,678.0156 659.7344,678.0156 C660,678.0156 660.2656,677.875 660.4375,677.6563 C660.5469,677.5 660.5781,677.3125 660.5781,676.8906 L660.5781,675.4688 C660.5781,675.0313 660.5625,674.9063 660.4688,674.75 C660.3125,674.4844 660.0313,674.3438 659.7344,674.3438 C659.4375,674.3438 659.2344,674.4375 659.0156,674.75 L658.8438,674.6719 Z " fill="#000000"/><text fill="#000000" font-family="sans-serif" font-size="14" lengthAdjust="spacing" textLength="52" x="670.5" y="683.8467">SegAct</text></g><!--class SegDes--><g id="elem_SegDes"><rect codeLine="19" fill="#F1F1F1" height="32" id="SegDes" rx="2.5" ry="2.5" style="stroke:#181818;stroke-width:0.5;" width="86" x="640.5" y="395"/><ellipse cx="655.5" cy="411" fill="#C2C2C2" rx="11" ry="11" style="stroke:#181818;stroke-width:1.0;"/><path d="M657.8438,406.6719 C656.9063,406.2344 656.3125,406.0938 655.4375,406.0938 C652.8125,406.0938 650.8125,408.1719 650.8125,410.8906 L650.8125,412.0156 C650.8125,414.5938 652.9219,416.4844 655.8125,416.4844 C657.0313,416.4844 658.1875,416.1875 658.9375,415.6406 C659.5156,415.2344 659.8438,414.7813 659.8438,414.3906 C659.8438,413.9375 659.4531,413.5469 658.9844,413.5469 C658.7656,413.5469 658.5625,413.625 658.375,413.8125 C657.9219,414.2969 657.9219,414.2969 657.7344,414.3906 C657.3125,414.6563 656.625,414.7813 655.8594,414.7813 C653.8125,414.7813 652.5156,413.6875 652.5156,411.9844 L652.5156,410.8906 C652.5156,409.1094 653.7656,407.7969 655.5,407.7969 C656.0781,407.7969 656.6875,407.9531 657.1563,408.2031 C657.6406,408.4844 657.8125,408.7031 657.9063,409.1094 C657.9688,409.5156 658,409.6406 658.1406,409.7656 C658.2813,409.9063 658.5156,410.0156 658.7344,410.0156 C659,410.0156 659.2656,409.875 659.4375,409.6563 C659.5469,409.5 659.5781,409.3125 659.5781,408.8906 L659.5781,407.4688 C659.5781,407.0313 659.5625,406.9063 659.4688,406.75 C659.3125,406.4844 659.0313,406.3438 658.7344,406.3438 C658.4375,406.3438 658.2344,406.4375 658.0156,406.75 L657.8438,406.6719 Z " fill="#000000"/><text fill="#000000" font-family="sans-serif" font-size="14" lengthAdjust="spacing" textLength="54" x="669.5" y="415.8467">SegDes</text></g><!--class SegSup--><g id="elem_SegSup"><rect codeLine="20" fill="#F1F1F1" height="32" id="SegSup" rx="2.5" ry="2.5" style="stroke:#181818;stroke-width:0.5;" width="86" x="640.5" y="462"/><ellipse cx="655.5" cy="478" fill="#C2C2C2" rx="11" ry="11" style="stroke:#181818;stroke-width:1.0;"/><path d="M657.8438,473.6719 C656.9063,473.2344 656.3125,473.0938 655.4375,473.0938 C652.8125,473.0938 650.8125,475.1719 650.8125,477.8906 L650.8125,479.0156 C650.8125,481.5938 652.9219,483.4844 655.8125,483.4844 C657.0313,483.4844 658.1875,483.1875 658.9375,482.6406 C659.5156,482.2344 659.8438,481.7813 659.8438,481.3906 C659.8438,480.9375 659.4531,480.5469 658.9844,480.5469 C658.7656,480.5469 658.5625,480.625 658.375,480.8125 C657.9219,481.2969 657.9219,481.2969 657.7344,481.3906 C657.3125,481.6563 656.625,481.7813 655.8594,481.7813 C653.8125,481.7813 652.5156,480.6875 652.5156,478.9844 L652.5156,477.8906 C652.5156,476.1094 653.7656,474.7969 655.5,474.7969 C656.0781,474.7969 656.6875,474.9531 657.1563,475.2031 C657.6406,475.4844 657.8125,475.7031 657.9063,476.1094 C657.9688,476.5156 658,476.6406 658.1406,476.7656 C658.2813,476.9063 658.5156,477.0156 658.7344,477.0156 C659,477.0156 659.2656,476.875 659.4375,476.6563 C659.5469,476.5 659.5781,476.3125 659.5781,475.8906 L659.5781,474.4688 C659.5781,474.0313 659.5625,473.9063 659.4688,473.75 C659.3125,473.4844 659.0313,473.3438 658.7344,473.3438 C658.4375,473.3438 658.2344,473.4375 658.0156,473.75 L657.8438,473.6719 Z " fill="#000000"/><text fill="#000000" font-family="sans-serif" font-size="14" lengthAdjust="spacing" textLength="54" x="669.5" y="482.8467">SegSup</text></g><!--class SegAdj--><g id="elem_SegAdj"><rect codeLine="21" fill="#F1F1F1" height="32" id="SegAdj" rx="2.5" ry="2.5" style="stroke:#181818;stroke-width:0.5;" width="82" x="642.5" y="529"/><ellipse cx="657.5" cy="545" fill="#C2C2C2" rx="11" ry="11" style="stroke:#181818;stroke-width:1.0;"/><path d="M659.8438,540.6719 C658.9063,540.2344 658.3125,540.0938 657.4375,540.0938 C654.8125,540.0938 652.8125,542.1719 652.8125,544.8906 L652.8125,546.0156 C652.8125,548.5938 654.9219,550.4844 657.8125,550.4844 C659.0313,550.4844 660.1875,550.1875 660.9375,549.6406 C661.5156,549.2344 661.8438,548.7813 661.8438,548.3906 C661.8438,547.9375 661.4531,547.5469 660.9844,547.5469 C660.7656,547.5469 660.5625,547.625 660.375,547.8125 C659.9219,548.2969 659.9219,548.2969 659.7344,548.3906 C659.3125,548.6563 658.625,548.7813 657.8594,548.7813 C655.8125,548.7813 654.5156,547.6875 654.5156,545.9844 L654.5156,544.8906 C654.5156,543.1094 655.7656,541.7969 657.5,541.7969 C658.0781,541.7969 658.6875,541.9531 659.1563,542.2031 C659.6406,542.4844 659.8125,542.7031 659.9063,543.1094 C659.9688,543.5156 660,543.6406 660.1406,543.7656 C660.2813,543.9063 660.5156,544.0156 660.7344,544.0156 C661,544.0156 661.2656,543.875 661.4375,543.6563 C661.5469,543.5 661.5781,543.3125 661.5781,542.8906 L661.5781,541.4688 C661.5781,541.0313 661.5625,540.9063 661.4688,540.75 C661.3125,540.4844 661.0313,540.3438 660.7344,540.3438 C660.4375,540.3438 660.2344,540.4375 660.0156,540.75 L659.8438,540.6719 Z " fill="#000000"/><text fill="#000000" font-family="sans-serif" font-size="14" lengthAdjust="spacing" textLength="50" x="671.5" y="549.8467">SegAdj</text></g><!--class ImplicitPointerVar--><g id="elem_ImplicitPointerVar"><rect codeLine="22" fill="#F1F1F1" height="32" id="ImplicitPointerVar" rx="2.5" ry="2.5" style="stroke:#181818;stroke-width:0.5;" width="164" x="380" y="388"/><ellipse cx="395" cy="404" fill="#C2C2C2" rx="11" ry="11" style="stroke:#181818;stroke-width:1.0;"/><path d="M397.3438,399.6719 C396.4063,399.2344 395.8125,399.0938 394.9375,399.0938 C392.3125,399.0938 390.3125,401.1719 390.3125,403.8906 L390.3125,405.0156 C390.3125,407.5938 392.4219,409.4844 395.3125,409.4844 C396.5313,409.4844 397.6875,409.1875 398.4375,408.6406 C399.0156,408.2344 399.3438,407.7813 399.3438,407.3906 C399.3438,406.9375 398.9531,406.5469 398.4844,406.5469 C398.2656,406.5469 398.0625,406.625 397.875,406.8125 C397.4219,407.2969 397.4219,407.2969 397.2344,407.3906 C396.8125,407.6563 396.125,407.7813 395.3594,407.7813 C393.3125,407.7813 392.0156,406.6875 392.0156,404.9844 L392.0156,403.8906 C392.0156,402.1094 393.2656,400.7969 395,400.7969 C395.5781,400.7969 396.1875,400.9531 396.6563,401.2031 C397.1406,401.4844 397.3125,401.7031 397.4063,402.1094 C397.4688,402.5156 397.5,402.6406 397.6406,402.7656 C397.7813,402.9063 398.0156,403.0156 398.2344,403.0156 C398.5,403.0156 398.7656,402.875 398.9375,402.6563 C399.0469,402.5 399.0781,402.3125 399.0781,401.8906 L399.0781,400.4688 C399.0781,400.0313 399.0625,399.9063 398.9688,399.75 C398.8125,399.4844 398.5313,399.3438 398.2344,399.3438 C397.9375,399.3438 397.7344,399.4375 397.5156,399.75 L397.3438,399.6719 Z " fill="#000000"/><text fill="#000000" font-family="sans-serif" font-size="14" lengthAdjust="spacing" textLength="132" x="409" y="408.8467">ImplicitPointerVar</text></g><!--class PointerType--><g id="elem_PointerType"><rect codeLine="23" fill="#F1F1F1" height="32" id="PointerType" rx="2.5" ry="2.5" style="stroke:#181818;stroke-width:0.5;" width="121" x="401.5" y="187"/><ellipse cx="416.5" cy="203" fill="#C2C2C2" rx="11" ry="11" style="stroke:#181818;stroke-width:1.0;"/><path d="M418.8438,198.6719 C417.9063,198.2344 417.3125,198.0938 416.4375,198.0938 C413.8125,198.0938 411.8125,200.1719 411.8125,202.8906 L411.8125,204.0156 C411.8125,206.5938 413.9219,208.4844 416.8125,208.4844 C418.0313,208.4844 419.1875,208.1875 419.9375,207.6406 C420.5156,207.2344 420.8438,206.7813 420.8438,206.3906 C420.8438,205.9375 420.4531,205.5469 419.9844,205.5469 C419.7656,205.5469 419.5625,205.625 419.375,205.8125 C418.9219,206.2969 418.9219,206.2969 418.7344,206.3906 C418.3125,206.6563 417.625,206.7813 416.8594,206.7813 C414.8125,206.7813 413.5156,205.6875 413.5156,203.9844 L413.5156,202.8906 C413.5156,201.1094 414.7656,199.7969 416.5,199.7969 C417.0781,199.7969 417.6875,199.9531 418.1563,200.2031 C418.6406,200.4844 418.8125,200.7031 418.9063,201.1094 C418.9688,201.5156 419,201.6406 419.1406,201.7656 C419.2813,201.9063 419.5156,202.0156 419.7344,202.0156 C420,202.0156 420.2656,201.875 420.4375,201.6563 C420.5469,201.5 420.5781,201.3125 420.5781,200.8906 L420.5781,199.4688 C420.5781,199.0313 420.5625,198.9063 420.4688,198.75 C420.3125,198.4844 420.0313,198.3438 419.7344,198.3438 C419.4375,198.3438 419.2344,198.4375 419.0156,198.75 L418.8438,198.6719 Z " fill="#000000"/><text fill="#000000" font-family="sans-serif" font-size="14" lengthAdjust="spacing" textLength="89" x="430.5" y="207.8467">PointerType</text></g><!--class Variable--><g id="elem_Variable"><rect codeLine="24" fill="#F1F1F1" height="32" id="Variable" rx="2.5" ry="2.5" style="stroke:#181818;stroke-width:0.5;" width="91" x="638" y="321"/><ellipse cx="653" cy="337" fill="#C2C2C2" rx="11" ry="11" style="stroke:#181818;stroke-width:1.0;"/><path d="M655.3438,332.6719 C654.4063,332.2344 653.8125,332.0938 652.9375,332.0938 C650.3125,332.0938 648.3125,334.1719 648.3125,336.8906 L648.3125,338.0156 C648.3125,340.5938 650.4219,342.4844 653.3125,342.4844 C654.5313,342.4844 655.6875,342.1875 656.4375,341.6406 C657.0156,341.2344 657.3438,340.7813 657.3438,340.3906 C657.3438,339.9375 656.9531,339.5469 656.4844,339.5469 C656.2656,339.5469 656.0625,339.625 655.875,339.8125 C655.4219,340.2969 655.4219,340.2969 655.2344,340.3906 C654.8125,340.6563 654.125,340.7813 653.3594,340.7813 C651.3125,340.7813 650.0156,339.6875 650.0156,337.9844 L650.0156,336.8906 C650.0156,335.1094 651.2656,333.7969 653,333.7969 C653.5781,333.7969 654.1875,333.9531 654.6563,334.2031 C655.1406,334.4844 655.3125,334.7031 655.4063,335.1094 C655.4688,335.5156 655.5,335.6406 655.6406,335.7656 C655.7813,335.9063 656.0156,336.0156 656.2344,336.0156 C656.5,336.0156 656.7656,335.875 656.9375,335.6563 C657.0469,335.5 657.0781,335.3125 657.0781,334.8906 L657.0781,333.4688 C657.0781,333.0313 657.0625,332.9063 656.9688,332.75 C656.8125,332.4844 656.5313,332.3438 656.2344,332.3438 C655.9375,332.3438 655.7344,332.4375 655.5156,332.75 L655.3438,332.6719 Z " fill="#000000"/><text fill="#000000" font-family="sans-serif" font-size="14" lengthAdjust="spacing" textLength="59" x="667" y="341.8467">Variable</text></g><!--class TType--><g id="elem_TType"><rect codeLine="25" fill="#F1F1F1" height="32" id="TType" rx="2.5" ry="2.5" style="stroke:#181818;stroke-width:0.5;" width="76" x="424" y="254"/><ellipse cx="439" cy="270" fill="#B1B1B1" rx="11" ry="11" style="stroke:#181818;stroke-width:1.0;"/><path d="M439.9531,266.7813 L441.6719,266.7813 C442.0625,266.7813 442.25,266.75 442.375,266.6719 C442.6406,266.5156 442.7813,266.2344 442.7813,265.9375 C442.7813,265.6719 442.6719,265.4063 442.4375,265.2344 C442.2656,265.125 442.125,265.0938 441.6719,265.0938 L436.5313,265.0938 C436.0938,265.0938 435.9688,265.1094 435.8125,265.2031 C435.5625,265.3594 435.4063,265.6563 435.4063,265.9375 C435.4063,266.2188 435.5469,266.4688 435.7656,266.6406 C435.9219,266.75 436.1094,266.7813 436.5313,266.7813 L438.25,266.7813 L438.25,273.2969 L436.5313,273.2969 C436.0938,273.2969 435.9688,273.3125 435.8125,273.4219 C435.5625,273.5781 435.4063,273.8594 435.4063,274.1563 C435.4063,274.4063 435.5469,274.6719 435.7656,274.8281 C435.9219,274.9531 436.125,275 436.5313,275 L441.6719,275 C442.4219,275 442.7813,274.7188 442.7813,274.1563 C442.7813,273.875 442.6719,273.625 442.4375,273.4531 C442.2656,273.3281 442.125,273.2969 441.6719,273.2969 L439.9531,273.2969 L439.9531,266.7813 Z " fill="#000000"/><text fill="#000000" font-family="sans-serif" font-size="14" font-style="italic" lengthAdjust="spacing" textLength="44" x="453" y="274.8467">TType</text></g><!--class TFunction--><g id="elem_TFunction"><rect codeLine="26" fill="#F1F1F1" height="32" id="TFunction" rx="2.5" ry="2.5" style="stroke:#181818;stroke-width:0.5;" width="102" x="847.5" y="79"/><ellipse cx="862.5" cy="95" fill="#B1B1B1" rx="11" ry="11" style="stroke:#181818;stroke-width:1.0;"/><path d="M863.4531,91.7813 L865.1719,91.7813 C865.5625,91.7813 865.75,91.75 865.875,91.6719 C866.1406,91.5156 866.2813,91.2344 866.2813,90.9375 C866.2813,90.6719 866.1719,90.4063 865.9375,90.2344 C865.7656,90.125 865.625,90.0938 865.1719,90.0938 L860.0313,90.0938 C859.5938,90.0938 859.4688,90.1094 859.3125,90.2031 C859.0625,90.3594 858.9063,90.6563 858.9063,90.9375 C858.9063,91.2188 859.0469,91.4688 859.2656,91.6406 C859.4219,91.75 859.6094,91.7813 860.0313,91.7813 L861.75,91.7813 L861.75,98.2969 L860.0313,98.2969 C859.5938,98.2969 859.4688,98.3125 859.3125,98.4219 C859.0625,98.5781 858.9063,98.8594 858.9063,99.1563 C858.9063,99.4063 859.0469,99.6719 859.2656,99.8281 C859.4219,99.9531 859.625,100 860.0313,100 L865.1719,100 C865.9219,100 866.2813,99.7188 866.2813,99.1563 C866.2813,98.875 866.1719,98.625 865.9375,98.4531 C865.7656,98.3281 865.625,98.2969 865.1719,98.2969 L863.4531,98.2969 L863.4531,91.7813 Z " fill="#000000"/><text fill="#000000" font-family="sans-serif" font-size="14" font-style="italic" lengthAdjust="spacing" textLength="70" x="876.5" y="99.8467">TFunction</text></g><!--class TStructuralEntity--><g id="elem_TStructuralEntity"><rect codeLine="27" fill="#F1F1F1" height="32" id="TStructuralEntity" rx="2.5" ry="2.5" style="stroke:#181818;stroke-width:0.5;" width="151" x="823" y="317"/><ellipse cx="838" cy="333" fill="#B1B1B1" rx="11" ry="11" style="stroke:#181818;stroke-width:1.0;"/><path d="M838.9531,329.7813 L840.6719,329.7813 C841.0625,329.7813 841.25,329.75 841.375,329.6719 C841.6406,329.5156 841.7813,329.2344 841.7813,328.9375 C841.7813,328.6719 841.6719,328.4063 841.4375,328.2344 C841.2656,328.125 841.125,328.0938 840.6719,328.0938 L835.5313,328.0938 C835.0938,328.0938 834.9688,328.1094 834.8125,328.2031 C834.5625,328.3594 834.4063,328.6563 834.4063,328.9375 C834.4063,329.2188 834.5469,329.4688 834.7656,329.6406 C834.9219,329.75 835.1094,329.7813 835.5313,329.7813 L837.25,329.7813 L837.25,336.2969 L835.5313,336.2969 C835.0938,336.2969 834.9688,336.3125 834.8125,336.4219 C834.5625,336.5781 834.4063,336.8594 834.4063,337.1563 C834.4063,337.4063 834.5469,337.6719 834.7656,337.8281 C834.9219,337.9531 835.125,338 835.5313,338 L840.6719,338 C841.4219,338 841.7813,337.7188 841.7813,337.1563 C841.7813,336.875 841.6719,336.625 841.4375,336.4531 C841.2656,336.3281 841.125,336.2969 840.6719,336.2969 L838.9531,336.2969 L838.9531,329.7813 Z " fill="#000000"/><text fill="#000000" font-family="sans-serif" font-size="14" font-style="italic" lengthAdjust="spacing" textLength="119" x="852" y="337.8467">TStructuralEntity</text></g><!--link EsopeEntity to FortranComment--><g id="link_EsopeEntity_FortranComment"><path codeLine="29" d="M515.576,152.048 C550.2,162.617 595.359,176.401 629.973,186.967 " fill="none" id="EsopeEntity-FortranComment" style="stroke:#181818;stroke-width:1.0;"/></g><!--link EsopeEntity to FortranFunction--><g id="link_EsopeEntity_FortranFunction"><path codeLine="30" d="M522.111,136 C549.157,136 581.458,136 609.961,136 " fill="none" id="EsopeEntity-FortranFunction" style="stroke:#181818;stroke-width:1.0;"/></g><!--link EsopeEntity to Variable--><g id="link_EsopeEntity_Variable"><path codeLine="31" d="M513.458,152.044 C524.074,156.626 534.825,162.253 544,169 C559.568,180.45 638.644,280.812 669.83,320.729 " fill="none" id="EsopeEntity-Variable" style="stroke:#181818;stroke-width:1.0;"/></g><!--link FortranFunction to TFunction--><g id="link_FortranFunction_TFunction"><path codeLine="33" d="M757.207,122.005 C779.905,117.636 804.889,112.827 827.404,108.493 " fill="none" id="FortranFunction-to-TFunction" style="stroke:#181818;stroke-width:1.0;stroke-dasharray:7.0,7.0;"/><polygon fill="none" points="826.289,101.579,847.252,104.672,828.935,115.326,826.289,101.579" style="stroke:#181818;stroke-width:1.0;"/></g><!--link EsopeFunction to TFunction--><g id="link_EsopeFunction_TFunction"><path codeLine="34" d="M278.051,89.219 C288.089,89.128 298.316,89.05 308,89 C326.666,88.904 331.333,88.979 350,89 C546.889,89.222 596.172,85.072 793,90 C804.065,90.277 815.783,90.706 827.217,91.198 " fill="none" id="EsopeFunction-to-TFunction" style="stroke:#181818;stroke-width:1.0;stroke-dasharray:7.0,7.0;"/><polygon fill="none" points="827.635,84.209,847.287,92.133,826.983,98.194,827.635,84.209" style="stroke:#181818;stroke-width:1.0;"/></g><!--link EsopeFunction to EsopeEntity--><g id="link_EsopeFunction_EsopeEntity"><path codeLine="36" d="M278.324,102.388 C310.182,108.249 348.441,115.289 381.696,121.408 " fill="none" id="EsopeFunction-to-EsopeEntity" style="stroke:#181818;stroke-width:1.0;"/><polygon fill="none" points="383.25,114.576,401.653,125.08,380.717,128.345,383.25,114.576" style="stroke:#181818;stroke-width:1.0;"/></g><!--link EsoAt to EsopeFunction--><g id="link_EsoAt_EsopeFunction"><path codeLine="37" d="M81.3969,37.869 C101.8185,46.212 127.773,56.816 150.935,66.278 " fill="none" id="EsoAt-to-EsopeFunction" style="stroke:#181818;stroke-width:1.0;"/><polygon fill="none" points="153.684,59.84,169.552,73.884,148.39,72.8,153.684,59.84" style="stroke:#181818;stroke-width:1.0;"/></g><!--link EsoAr to EsopeFunction--><g id="link_EsoAr_EsopeFunction"><path codeLine="38" d="M80.5856,90 C92.7514,90 106.9498,90 121.381,90 " fill="none" id="EsoAr-to-EsopeFunction" style="stroke:#181818;stroke-width:1.0;"/><polygon fill="none" points="121.751,83,141.751,90,121.751,97,121.751,83" style="stroke:#181818;stroke-width:1.0;"/></g><!--link EsoSl to EsopeFunction--><g id="link_EsoSl_EsopeFunction"><path codeLine="39" d="M79.3798,142.955 C100.1025,134.489 127.035,123.486 150.977,113.705 " fill="none" id="EsoSl-to-EsopeFunction" style="stroke:#181818;stroke-width:1.0;"/><polygon fill="none" points="148.609,107.11,169.771,106.027,153.904,120.071,148.609,107.11" style="stroke:#181818;stroke-width:1.0;"/></g><!--link Segment to EsopeEntity--><g id="link_Segment_EsopeEntity"><path codeLine="41" d="M246.274,220.804 C264.585,212.54 287.383,202.47 308,194 C337.179,182.013 369.832,169.511 397.455,159.198 " fill="none" id="Segment-to-EsopeEntity" style="stroke:#181818;stroke-width:1.0;"/><polygon fill="none" points="395.373,152.504,416.559,152.113,400.241,165.631,395.373,152.504" style="stroke:#181818;stroke-width:1.0;"/></g><!--reverse link Segment to Attribute--><g id="link_Segment_Attribute"><path codeLine="43" d="M263.517,258.007 C310.459,276.784 378.237,303.895 420.933,320.973 " fill="none" id="Segment-backto-Attribute" style="stroke:#181818;stroke-width:1.0;"/><polygon fill="#181818" points="251.167,253.067,255.2521,259.0094,262.3085,257.5241,258.2235,251.5817,251.167,253.067" style="stroke:#181818;stroke-width:1.0;"/><text fill="#000000" font-family="sans-serif" font-size="13" lengthAdjust="spacing" textLength="7" x="398.6131" y="309.9753">*</text></g><!--link Segment to PointerType--><g id="link_Segment_PointerType"><path codeLine="44" d="M259.203,230.444 C299.783,224.926 357.993,217.009 401.476,211.095 " fill="none" id="Segment-PointerType" style="stroke:#181818;stroke-width:1.0;"/><text fill="#000000" font-family="sans-serif" font-size="13" lengthAdjust="spacing" textLength="40" x="309" y="215.0669">pointe</text><text fill="#000000" font-family="sans-serif" font-size="13" lengthAdjust="spacing" textLength="7" x="386.6731" y="225.0706">*</text></g><!--link Segment to TType--><g id="link_Segment_TType"><path codeLine="45" d="M259.203,243.363 C300.539,248.819 360.169,256.69 403.891,262.462 " fill="none" id="Segment-to-TType" style="stroke:#181818;stroke-width:1.0;stroke-dasharray:7.0,7.0;"/><polygon fill="none" points="405.015,255.549,423.927,265.106,403.183,269.429,405.015,255.549" style="stroke:#181818;stroke-width:1.0;"/></g><!--link Attribute to Variable--><g id="link_Attribute_Variable"><path codeLine="47" d="M512.26,337 C543.306,337 583.743,337 617.416,337 " fill="none" id="Attribute-to-Variable" style="stroke:#181818;stroke-width:1.0;"/><polygon fill="none" points="617.88,330,637.88,337,617.88,344,617.88,330" style="stroke:#181818;stroke-width:1.0;"/></g><!--link Variable to TStructuralEntity--><g id="link_Variable_TStructuralEntity"><path codeLine="48" d="M729.152,336.161 C750.521,335.76 776.974,335.263 802.53,334.783 " fill="none" id="Variable-to-TStructuralEntity" style="stroke:#181818;stroke-width:1.0;stroke-dasharray:7.0,7.0;"/><polygon fill="none" points="802.592,327.781,822.72,334.404,802.855,341.779,802.592,327.781" style="stroke:#181818;stroke-width:1.0;"/></g><!--link ImplicitPointerVar to Variable--><g id="link_ImplicitPointerVar_Variable"><path codeLine="49" d="M515.576,387.952 C546.455,378.526 585.712,366.543 618.397,356.567 " fill="none" id="ImplicitPointerVar-to-Variable" style="stroke:#181818;stroke-width:1.0;"/><polygon fill="none" points="616.592,349.799,637.765,350.655,620.679,363.189,616.592,349.799" style="stroke:#181818;stroke-width:1.0;"/></g><!--link Variable to SegmentUse--><g id="link_Variable_SegmentUse"><path codeLine="51" d="M721.346,353.132 C734.683,359.703 749.521,367.901 762,377 C812.176,413.585 861.349,468.755 884.211,495.838 " fill="none" id="Variable-SegmentUse" style="stroke:#181818;stroke-width:1.0;"/></g><!--link SegAct to SegmentUse--><g id="link_SegAct_SegmentUse"><path codeLine="53" d="M725.782,664.1706 C737.932,658.9532 750.926,652.4915 762,645 C804.68,616.1287 845.76,572.926 871.28,543.658 " fill="none" id="SegAct-to-SegmentUse" style="stroke:#181818;stroke-width:1.0;"/><polygon fill="none" points="866.106,538.938,884.403,528.251,876.764,548.016,866.106,538.938" style="stroke:#181818;stroke-width:1.0;"/></g><!--link SegAdj to SegmentUse--><g id="link_SegAdj_SegmentUse"><path codeLine="54" d="M724.564,538.793 C750.662,534.75 785.621,529.333 817.277,524.429 " fill="none" id="SegAdj-to-SegmentUse" style="stroke:#181818;stroke-width:1.0;"/><polygon fill="none" points="816.641,517.444,837.477,521.299,818.784,531.279,816.641,517.444" style="stroke:#181818;stroke-width:1.0;"/></g><!--link SegDes to SegmentUse--><g id="link_SegDes_SegmentUse"><path codeLine="55" d="M723.739,427.146 C736.058,432.365 749.66,438.283 762,444 C791.165,457.511 823.338,473.606 849.014,486.744 " fill="none" id="SegDes-to-SegmentUse" style="stroke:#181818;stroke-width:1.0;"/><polygon fill="none" points="852.248,480.536,866.823,495.916,845.838,492.983,852.248,480.536" style="stroke:#181818;stroke-width:1.0;"/></g><!--link SegIni to SegmentUse--><g id="link_SegIni_SegmentUse"><path codeLine="56" d="M721.69,596.0422 C734.512,590.446 748.932,584.046 762,578 C790.386,564.866 821.805,549.609 847.236,537.074 " fill="none" id="SegIni-to-SegmentUse" style="stroke:#181818;stroke-width:1.0;"/><polygon fill="none" points="844.337,530.698,865.367,528.099,850.548,543.245,844.337,530.698" style="stroke:#181818;stroke-width:1.0;"/></g><!--link SegSup to SegmentUse--><g id="link_SegSup_SegmentUse"><path codeLine="57" d="M726.582,484.717 C752.416,488.841 786.35,494.258 817.168,499.177 " fill="none" id="SegSup-to-SegmentUse" style="stroke:#181818;stroke-width:1.0;"/><polygon fill="none" points="818.712,492.335,837.359,502.4,816.506,506.16,818.712,492.335" style="stroke:#181818;stroke-width:1.0;"/></g><!--SRC=[TLBBRiCW4Bpp5IZ7ICu7z539QXCfjqfEUyTaaz3oi61zYDIFBp8ERB1xOsUMMTYPyAFi8Bmmt3ZhvCqx0npz28nfk217nxswtf2VbGU9obd6RkeCt83fmGV6f1OXy8Fpw8LzSyQ0nMVmCDfqCw7xu0ROMrHuPw8FiKDY0gl63gv4h4NqgXyHYaoBvEpBkTD5U1Rv351KZrQLefLOYdS8fUZ6WRITl-VYQ0QjfC8Ffoo2_nAFoJDmkW-FMP5JejV09k8Y9F3JH9CwVvfWNNH0ukY5dlV4oD9uqzJhNcUpSaNdLx6gaUzslw_aHK-cr6J5DaragRMJFmIcggt_X-Zq6i5c4vT3ChED_zfiDoGbvSv447DU-30LkINzR3A6PO4qBE_gSPYR5mujKr4958Nu8f9AbZAOkWcUChS6nv2kmJ7LQt1CSGt_0G00]--></g></svg>