<?xml version="1.0" encoding="UTF-8" standalone="no"?><svg xmlns="http://www.w3.org/2000/svg" xmlns:xlink="http://www.w3.org/1999/xlink" contentStyleType="text/css" height="360px" preserveAspectRatio="none" style="width:642px;height:360px;background:#FFFFFF;" version="1.1" viewBox="0 0 642 360" width="642px" zoomAndPan="magnify"><defs/><g><!--class File--><g id="elem_File"><rect codeLine="8" fill="#F1F1F1" height="26.2969" id="File" rx="2.5" ry="2.5" style="stroke:#181818;stroke-width:0.5;" width="31" x="19" y="150"/><text fill="#000000" font-family="sans-serif" font-size="14" lengthAdjust="spacing" textLength="25" x="22" y="167.9951">File</text></g><!--class Module--><g id="elem_Module"><rect codeLine="9" fill="#F1F1F1" height="26.2969" id="Module" rx="2.5" ry="2.5" style="stroke:#181818;stroke-width:0.5;" width="57" x="111" y="68"/><text fill="#000000" font-family="sans-serif" font-size="14" lengthAdjust="spacing" textLength="51" x="114" y="85.9951">Module</text></g><!--class Program--><g id="elem_Program"><rect codeLine="10" fill="#F1F1F1" height="26.2969" id="Program" rx="2.5" ry="2.5" style="stroke:#181818;stroke-width:0.5;" width="67" x="266.5" y="85"/><text fill="#000000" font-family="sans-serif" font-size="14" lengthAdjust="spacing" textLength="61" x="269.5" y="102.9951">Program</text></g><!--class Variable--><g id="elem_Variable"><rect codeLine="11" fill="#F1F1F1" height="26.2969" id="Variable" rx="2.5" ry="2.5" style="stroke:#181818;stroke-width:0.5;" width="65" x="418" y="52"/><text fill="#000000" font-family="sans-serif" font-size="14" lengthAdjust="spacing" textLength="59" x="421" y="69.9951">Variable</text></g><!--class SubProgram--><g id="elem_SubProgram"><rect codeLine="12" fill="#F1F1F1" height="26.2969" id="SubProgram" rx="2.5" ry="2.5" style="stroke:#181818;stroke-width:0.5;" width="94" x="253" y="216"/><text fill="#000000" font-family="sans-serif" font-size="14" lengthAdjust="spacing" textLength="88" x="256" y="233.9951">SubProgram</text></g><!--class Parameter--><g id="elem_Parameter"><rect codeLine="13" fill="#F1F1F1" height="26.2969" id="Parameter" rx="2.5" ry="2.5" style="stroke:#181818;stroke-width:0.5;" width="82" x="409.5" y="267"/><text fill="#000000" font-family="sans-serif" font-size="14" lengthAdjust="spacing" textLength="76" x="412.5" y="284.9951">Parameter</text></g><!--class Function--><g id="elem_Function"><rect codeLine="14" fill="#F1F1F1" height="26.2969" id="Function" rx="2.5" ry="2.5" style="stroke:#181818;stroke-width:0.5;" width="68" x="416.5" y="328"/><text fill="#000000" font-family="sans-serif" font-size="14" lengthAdjust="spacing" textLength="62" x="419.5" y="345.9951">Function</text></g><!--class Subroutine--><g id="elem_Subroutine"><rect codeLine="15" fill="#F1F1F1" height="26.2969" id="Subroutine" rx="2.5" ry="2.5" style="stroke:#181818;stroke-width:0.5;" width="85" x="408" y="206"/><text fill="#000000" font-family="sans-serif" font-size="14" lengthAdjust="spacing" textLength="79" x="411" y="223.9951">Subroutine</text></g><!--class Body--><g id="elem_Body"><rect codeLine="16" fill="#F1F1F1" height="26.2969" id="Body" rx="2.5" ry="2.5" style="stroke:#181818;stroke-width:0.5;" width="42" x="429.5" y="129"/><text fill="#000000" font-family="sans-serif" font-size="14" lengthAdjust="spacing" textLength="36" x="432.5" y="146.9951">Body</text></g><!--class Access--><g id="elem_Access"><rect codeLine="17" fill="#F1F1F1" height="26.2969" id="Access" rx="2.5" ry="2.5" style="stroke:#181818;stroke-width:0.5;" width="55" x="567" y="99"/><text fill="#000000" font-family="sans-serif" font-size="14" lengthAdjust="spacing" textLength="49" x="570" y="116.9951">Access</text></g><!--class Invocation--><g id="elem_Invocation"><rect codeLine="18" fill="#F1F1F1" height="26.2969" id="Invocation" rx="2.5" ry="2.5" style="stroke:#181818;stroke-width:0.5;" width="81" x="554" y="160"/><text fill="#000000" font-family="sans-serif" font-size="14" lengthAdjust="spacing" textLength="75" x="557" y="177.9951">Invocation</text></g><!--reverse link File to File--><g id="link_File_File"><path codeLine="20" d="M27.0926,144.801 C24.1204,130.141 26.5895,115 34.5,115 C43.3047,115 45.3683,133.758 40.6908,149.731 " fill="none" id="File-backto-File" style="stroke:#181818;stroke-width:1.0;"/><polygon fill="#181818" points="28.3092,149.731,30.0379,140.035,27.112,144.8764,22.2706,141.9505,28.3092,149.731" style="stroke:#181818;stroke-width:1.0;"/><text fill="#000000" font-family="sans-serif" font-size="13" lengthAdjust="spacing" textLength="45" x="12" y="106.0669">include</text><text fill="#000000" font-family="sans-serif" font-size="13" lengthAdjust="spacing" textLength="7" x="17.6146" y="138.8484">*</text></g><!--reverse link File to Module--><g id="link_File_Module"><path codeLine="21" d="M60.628,142.995 C79.7488,127.773 105.512,107.262 122.067,94.082 " fill="none" id="File-backto-Module" style="stroke:#181818;stroke-width:1.0;"/><polygon fill="#181818" points="50.2574,151.251,57.4428,150.6431,59.6454,143.7766,52.4599,144.3845,50.2574,151.251" style="stroke:#181818;stroke-width:1.0;"/><text fill="#000000" font-family="sans-serif" font-size="13" lengthAdjust="spacing" textLength="7" x="106.4321" y="114.6051">*</text></g><!--reverse link File to SubProgram--><g id="link_File_SubProgram"><path codeLine="22" d="M62.6901,169.81 C107.622,181.065 197.863,203.668 252.903,217.454 " fill="none" id="File-backto-SubProgram" style="stroke:#181818;stroke-width:1.0;"/><polygon fill="#181818" points="50.0422,166.642,54.8906,171.9799,61.6827,169.5574,56.8342,164.2195,50.0422,166.642" style="stroke:#181818;stroke-width:1.0;"/><text fill="#000000" font-family="sans-serif" font-size="13" lengthAdjust="spacing" textLength="7" x="238.1553" y="228.8888">*</text></g><!--reverse link File to Program--><g id="link_File_Program"><path codeLine="23" d="M62.8412,156.255 C111.633,144.219 213.507,119.089 266.065,106.124 " fill="none" id="File-backto-Program" style="stroke:#181818;stroke-width:1.0;"/><polygon fill="#181818" points="50.0422,159.413,56.8256,161.8595,61.6929,156.5389,54.9095,154.0924,50.0422,159.413" style="stroke:#181818;stroke-width:1.0;"/><text fill="#000000" font-family="sans-serif" font-size="13" lengthAdjust="spacing" textLength="24" x="234.457" y="120.765">0..1</text></g><!--reverse link Module to Module--><g id="link_Module_Module"><path codeLine="25" d="M130.16,62.801 C126.413,48.141 129.526,33 139.5,33 C150.602,33 153.203,51.758 147.306,67.731 " fill="none" id="Module-backto-Module" style="stroke:#181818;stroke-width:1.0;"/><polygon fill="#181818" points="131.694,67.731,132.8391,57.9489,130.2083,62.9568,125.2004,60.326,131.694,67.731" style="stroke:#181818;stroke-width:1.0;"/><text fill="#000000" font-family="sans-serif" font-size="13" lengthAdjust="spacing" textLength="23" x="128" y="24.0669">use</text><text fill="#000000" font-family="sans-serif" font-size="13" lengthAdjust="spacing" textLength="7" x="120.3836" y="56.8484">*</text></g><!--reverse link Module to Program--><g id="link_Module_Program"><path codeLine="26" d="M173.394,84.528 C200.603,87.446 239.056,91.571 266.231,94.485 " fill="none" id="Module-backto-Program" style="stroke:#181818;stroke-width:1.0;"/><polygon fill="#181818" points="168.109,83.961,176.63,88.8998,173.0804,84.4953,177.4849,80.9456,168.109,83.961" style="stroke:#181818;stroke-width:1.0;"/><text fill="#000000" font-family="sans-serif" font-size="13" lengthAdjust="spacing" textLength="23" x="199" y="83.0669">use</text></g><!--reverse link Module to Variable--><g id="link_Module_Variable"><path codeLine="28" d="M180.969,66.069 C186.625,64.442 192.414,63.011 198,62 C276.78,47.737 298.133,49.442 378,55 C391.129,55.914 405.516,57.76 417.921,59.62 " fill="none" id="Module-backto-Variable" style="stroke:#181818;stroke-width:1.0;"/><polygon fill="#181818" points="168.168,70.119,175.0951,72.1228,179.609,66.4992,172.6819,64.4954,168.168,70.119" style="stroke:#181818;stroke-width:1.0;"/><text fill="#000000" font-family="sans-serif" font-size="13" lengthAdjust="spacing" textLength="7" x="403.0287" y="53.8515">*</text></g><!--reverse link Module to SubProgram--><g id="link_Module_SubProgram"><path codeLine="29" d="M164.425,103.34 C197.859,134.559 257.509,190.257 284.738,215.683 " fill="none" id="Module-backto-SubProgram" style="stroke:#181818;stroke-width:1.0;"/><polygon fill="#181818" points="154.566,94.134,156.2211,101.1526,163.3364,102.3242,161.6813,95.3056,154.566,94.134" style="stroke:#181818;stroke-width:1.0;"/><text fill="#000000" font-family="sans-serif" font-size="13" lengthAdjust="spacing" textLength="7" x="270.8195" y="205.0434">*</text></g><!--reverse link Program to Variable--><g id="link_Program_Variable"><path codeLine="30" d="M346.571,87.873 C369.617,82.752 397.018,76.663 417.752,72.055 " fill="none" id="Program-backto-Variable" style="stroke:#181818;stroke-width:1.0;"/><polygon fill="#181818" points="333.589,90.758,340.3138,93.3612,345.3032,88.1548,338.5784,85.5517,333.589,90.758" style="stroke:#181818;stroke-width:1.0;"/><text fill="#000000" font-family="sans-serif" font-size="13" lengthAdjust="spacing" textLength="7" x="402.8228" y="87.2879">*</text></g><!--reverse link SubProgram to Function--><g id="link_SubProgram_Function"><path codeLine="32" d="M333.793,254.5089 C354.877,270.8152 382.92,292.3303 408,311 C415.559,316.6271 423.974,322.7376 431.239,327.9666 " fill="none" id="SubProgram-backto-Function" style="stroke:#181818;stroke-width:1.0;"/><polygon fill="none" points="329.453,260.0012,317.938,242.213,338.032,248.938,329.453,260.0012" style="stroke:#181818;stroke-width:1.0;"/></g><!--reverse link SubProgram to Subroutine--><g id="link_SubProgram_Subroutine"><path codeLine="33" d="M367.506,224.522 C381.247,223.596 395.347,222.647 407.894,221.802 " fill="none" id="SubProgram-backto-Subroutine" style="stroke:#181818;stroke-width:1.0;"/><polygon fill="none" points="367.597,231.531,347.172,225.891,366.657,217.563,367.597,231.531" style="stroke:#181818;stroke-width:1.0;"/></g><!--reverse link SubProgram to Parameter--><g id="link_SubProgram_Parameter"><path codeLine="35" d="M351.349,246.292 C371.008,253.043 393.17,260.6545 411.454,266.9338 " fill="none" id="SubProgram-backto-Parameter" style="stroke:#181818;stroke-width:1.0;"/><polygon fill="#181818" points="338.857,242.001,343.2322,247.7332,350.2062,245.8992,345.831,240.1671,338.857,242.001" style="stroke:#181818;stroke-width:1.0;"/><text fill="#000000" font-family="sans-serif" font-size="13" lengthAdjust="spacing" textLength="7" x="394.6152" y="259.226">*</text></g><!--reverse link SubProgram to Variable--><g id="link_SubProgram_Variable"><path codeLine="36" d="M321.739,206.096 C353.278,171.265 412.293,106.091 437.542,78.206 " fill="none" id="SubProgram-backto-Variable" style="stroke:#181818;stroke-width:1.0;"/><polygon fill="#181818" points="312.901,215.856,319.8933,214.093,320.9552,206.9605,313.9629,208.7235,312.901,215.856" style="stroke:#181818;stroke-width:1.0;"/><text fill="#000000" font-family="sans-serif" font-size="13" lengthAdjust="spacing" textLength="7" x="424.0617" y="98.3936">*</text></g><!--reverse link Body to Access--><g id="link_Body_Access"><path codeLine="38" d="M484.399,135.05 C509.423,129.763 543.42,122.58 566.777,117.646 " fill="none" id="Body-backto-Access" style="stroke:#181818;stroke-width:1.0;"/><polygon fill="#181818" points="471.544,137.765,478.2412,140.4385,483.2849,135.2847,476.5877,132.6112,471.544,137.765" style="stroke:#181818;stroke-width:1.0;"/><text fill="#000000" font-family="sans-serif" font-size="13" lengthAdjust="spacing" textLength="7" x="552.1664" y="132.8972">*</text></g><!--reverse link Body to Invocation--><g id="link_Body_Invocation"><path codeLine="39" d="M484.477,149.199 C505.214,153.726 532.091,159.594 553.969,164.37 " fill="none" id="Body-backto-Invocation" style="stroke:#181818;stroke-width:1.0;"/><polygon fill="#181818" points="471.544,146.376,476.5528,151.5637,483.2679,148.9354,478.2591,143.7478,471.544,146.376" style="stroke:#181818;stroke-width:1.0;"/><text fill="#000000" font-family="sans-serif" font-size="13" lengthAdjust="spacing" textLength="7" x="539.126" y="176.221">*</text></g><!--reverse link SubProgram to Body--><g id="link_SubProgram_Body"><path codeLine="41" d="M334.543,209.349 C363.771,192.225 405.181,167.965 429.499,153.718 " fill="none" id="SubProgram-backto-Body" style="stroke:#181818;stroke-width:1.0;"/><polygon fill="#181818" points="323.232,215.975,330.431,216.3935,333.586,209.9092,326.3871,209.4908,323.232,215.975" style="stroke:#181818;stroke-width:1.0;"/><text fill="#000000" font-family="sans-serif" font-size="13" lengthAdjust="spacing" textLength="8" x="413.5299" y="171.8845">1</text></g><!--reverse link Program to Body--><g id="link_Program_Body"><path codeLine="42" d="M346.201,111.393 C373.924,119.607 408.061,129.722 429.307,136.017 " fill="none" id="Program-backto-Body" style="stroke:#181818;stroke-width:1.0;"/><polygon fill="#181818" points="333.589,107.656,338.2055,113.1956,345.0946,111.0648,340.4781,105.5252,333.589,107.656" style="stroke:#181818;stroke-width:1.0;"/><text fill="#000000" font-family="sans-serif" font-size="13" lengthAdjust="spacing" textLength="8" x="413.5916" y="148.5234">1</text></g><!--SRC=[RP4zQmCn38Pt_mfnOo2XNKEMTYXqA0GAtNsscZEziufi1mBzyJt77-TBiabwPBsl9VTZxAzaES54bjJ0D25u3YZ4YDyUF06Rq-116qRb3LaX1gCHb64rOeedd7fa9uGQfNFmPcQGmW_IeIP7fjEibBCloKRs5Nw6VisFqHLwv38rsAHV-vc2DxOCU2LzoU6BKkXSJjxjcPHCpgCpw3OT7BRRgqtOWx5g31eJWyqCOaDnlgus9XlmjDizT_Lt8hsiCZdTGt1OMApd_WmAgL9rFRUWyL16tBqHInCS_k9Vo_9kGRF6bjMHonKUqKKmRd-fvmEiY-qXxeRD2xmUy67r7m00]--></g></svg>