<?xml version="1.0" encoding="us-ascii" standalone="no"?><svg xmlns="http://www.w3.org/2000/svg" xmlns:xlink="http://www.w3.org/1999/xlink" contentStyleType="text/css" height="314px" preserveAspectRatio="none" style="width:799px;height:314px;background:#FFFFFF;" version="1.1" viewBox="0 0 799 314" width="799px" zoomAndPan="magnify"><defs/><g><!--class BlockData--><g id="elem_BlockData"><rect codeLine="7" fill="#F1F1F1" height="32" id="BlockData" rx="2.5" ry="2.5" style="stroke:#181818;stroke-width:0.5;" width="106" x="260" y="7"/><ellipse cx="275" cy="23" fill="#C2C2C2" rx="11" ry="11" style="stroke:#181818;stroke-width:1.0;"/><path d="M277.3438,18.6719 C276.4063,18.2344 275.8125,18.0938 274.9375,18.0938 C272.3125,18.0938 270.3125,20.1719 270.3125,22.8906 L270.3125,24.0156 C270.3125,26.5938 272.4219,28.4844 275.3125,28.4844 C276.5313,28.4844 277.6875,28.1875 278.4375,27.6406 C279.0156,27.2344 279.3438,26.7813 279.3438,26.3906 C279.3438,25.9375 278.9531,25.5469 278.4844,25.5469 C278.2656,25.5469 278.0625,25.625 277.875,25.8125 C277.4219,26.2969 277.4219,26.2969 277.2344,26.3906 C276.8125,26.6563 276.125,26.7813 275.3594,26.7813 C273.3125,26.7813 272.0156,25.6875 272.0156,23.9844 L272.0156,22.8906 C272.0156,21.1094 273.2656,19.7969 275,19.7969 C275.5781,19.7969 276.1875,19.9531 276.6563,20.2031 C277.1406,20.4844 277.3125,20.7031 277.4063,21.1094 C277.4688,21.5156 277.5,21.6406 277.6406,21.7656 C277.7813,21.9063 278.0156,22.0156 278.2344,22.0156 C278.5,22.0156 278.7656,21.875 278.9375,21.6563 C279.0469,21.5 279.0781,21.3125 279.0781,20.8906 L279.0781,19.4688 C279.0781,19.0313 279.0625,18.9063 278.9688,18.75 C278.8125,18.4844 278.5313,18.3438 278.2344,18.3438 C277.9375,18.3438 277.7344,18.4375 277.5156,18.75 L277.3438,18.6719 Z " fill="#000000"/><text fill="#000000" font-family="sans-serif" font-size="14" lengthAdjust="spacing" textLength="74" x="289" y="27.8467">BlockData</text></g><!--class Comment--><g id="elem_Comment"><rect codeLine="8" fill="#F1F1F1" height="32" id="Comment" rx="2.5" ry="2.5" style="stroke:#181818;stroke-width:0.5;" width="104" x="655.5" y="7"/><ellipse cx="670.5" cy="23" fill="#C2C2C2" rx="11" ry="11" style="stroke:#181818;stroke-width:1.0;"/><path d="M672.8438,18.6719 C671.9063,18.2344 671.3125,18.0938 670.4375,18.0938 C667.8125,18.0938 665.8125,20.1719 665.8125,22.8906 L665.8125,24.0156 C665.8125,26.5938 667.9219,28.4844 670.8125,28.4844 C672.0313,28.4844 673.1875,28.1875 673.9375,27.6406 C674.5156,27.2344 674.8438,26.7813 674.8438,26.3906 C674.8438,25.9375 674.4531,25.5469 673.9844,25.5469 C673.7656,25.5469 673.5625,25.625 673.375,25.8125 C672.9219,26.2969 672.9219,26.2969 672.7344,26.3906 C672.3125,26.6563 671.625,26.7813 670.8594,26.7813 C668.8125,26.7813 667.5156,25.6875 667.5156,23.9844 L667.5156,22.8906 C667.5156,21.1094 668.7656,19.7969 670.5,19.7969 C671.0781,19.7969 671.6875,19.9531 672.1563,20.2031 C672.6406,20.4844 672.8125,20.7031 672.9063,21.1094 C672.9688,21.5156 673,21.6406 673.1406,21.7656 C673.2813,21.9063 673.5156,22.0156 673.7344,22.0156 C674,22.0156 674.2656,21.875 674.4375,21.6563 C674.5469,21.5 674.5781,21.3125 674.5781,20.8906 L674.5781,19.4688 C674.5781,19.0313 674.5625,18.9063 674.4688,18.75 C674.3125,18.4844 674.0313,18.3438 673.7344,18.3438 C673.4375,18.3438 673.2344,18.4375 673.0156,18.75 L672.8438,18.6719 Z " fill="#000000"/><text fill="#000000" font-family="sans-serif" font-size="14" lengthAdjust="spacing" textLength="72" x="684.5" y="27.8467">Comment</text></g><!--class Function--><g id="elem_Function"><rect codeLine="9" fill="#F1F1F1" height="32" id="Function" rx="2.5" ry="2.5" style="stroke:#181818;stroke-width:0.5;" width="94" x="53" y="141"/><ellipse cx="68" cy="157" fill="#C2C2C2" rx="11" ry="11" style="stroke:#181818;stroke-width:1.0;"/><path d="M70.3438,152.6719 C69.4063,152.2344 68.8125,152.0938 67.9375,152.0938 C65.3125,152.0938 63.3125,154.1719 63.3125,156.8906 L63.3125,158.0156 C63.3125,160.5938 65.4219,162.4844 68.3125,162.4844 C69.5313,162.4844 70.6875,162.1875 71.4375,161.6406 C72.0156,161.2344 72.3438,160.7813 72.3438,160.3906 C72.3438,159.9375 71.9531,159.5469 71.4844,159.5469 C71.2656,159.5469 71.0625,159.625 70.875,159.8125 C70.4219,160.2969 70.4219,160.2969 70.2344,160.3906 C69.8125,160.6563 69.125,160.7813 68.3594,160.7813 C66.3125,160.7813 65.0156,159.6875 65.0156,157.9844 L65.0156,156.8906 C65.0156,155.1094 66.2656,153.7969 68,153.7969 C68.5781,153.7969 69.1875,153.9531 69.6563,154.2031 C70.1406,154.4844 70.3125,154.7031 70.4063,155.1094 C70.4688,155.5156 70.5,155.6406 70.6406,155.7656 C70.7813,155.9063 71.0156,156.0156 71.2344,156.0156 C71.5,156.0156 71.7656,155.875 71.9375,155.6563 C72.0469,155.5 72.0781,155.3125 72.0781,154.8906 L72.0781,153.4688 C72.0781,153.0313 72.0625,152.9063 71.9688,152.75 C71.8125,152.4844 71.5313,152.3438 71.2344,152.3438 C70.9375,152.3438 70.7344,152.4375 70.5156,152.75 L70.3438,152.6719 Z " fill="#000000"/><text fill="#000000" font-family="sans-serif" font-size="14" lengthAdjust="spacing" textLength="62" x="82" y="161.8467">Function</text></g><!--class Module--><g id="elem_Module"><rect codeLine="10" fill="#F1F1F1" height="32" id="Module" rx="2.5" ry="2.5" style="stroke:#181818;stroke-width:0.5;" width="83" x="271.5" y="74"/><ellipse cx="286.5" cy="90" fill="#C2C2C2" rx="11" ry="11" style="stroke:#181818;stroke-width:1.0;"/><path d="M288.8438,85.6719 C287.9063,85.2344 287.3125,85.0938 286.4375,85.0938 C283.8125,85.0938 281.8125,87.1719 281.8125,89.8906 L281.8125,91.0156 C281.8125,93.5938 283.9219,95.4844 286.8125,95.4844 C288.0313,95.4844 289.1875,95.1875 289.9375,94.6406 C290.5156,94.2344 290.8438,93.7813 290.8438,93.3906 C290.8438,92.9375 290.4531,92.5469 289.9844,92.5469 C289.7656,92.5469 289.5625,92.625 289.375,92.8125 C288.9219,93.2969 288.9219,93.2969 288.7344,93.3906 C288.3125,93.6563 287.625,93.7813 286.8594,93.7813 C284.8125,93.7813 283.5156,92.6875 283.5156,90.9844 L283.5156,89.8906 C283.5156,88.1094 284.7656,86.7969 286.5,86.7969 C287.0781,86.7969 287.6875,86.9531 288.1563,87.2031 C288.6406,87.4844 288.8125,87.7031 288.9063,88.1094 C288.9688,88.5156 289,88.6406 289.1406,88.7656 C289.2813,88.9063 289.5156,89.0156 289.7344,89.0156 C290,89.0156 290.2656,88.875 290.4375,88.6563 C290.5469,88.5 290.5781,88.3125 290.5781,87.8906 L290.5781,86.4688 C290.5781,86.0313 290.5625,85.9063 290.4688,85.75 C290.3125,85.4844 290.0313,85.3438 289.7344,85.3438 C289.4375,85.3438 289.2344,85.4375 289.0156,85.75 L288.8438,85.6719 Z " fill="#000000"/><text fill="#000000" font-family="sans-serif" font-size="14" lengthAdjust="spacing" textLength="51" x="300.5" y="94.8467">Module</text></g><!--class Parameter--><g id="elem_Parameter"><rect codeLine="11" fill="#F1F1F1" height="32" id="Parameter" rx="2.5" ry="2.5" style="stroke:#181818;stroke-width:0.5;" width="108" x="653.5" y="74"/><ellipse cx="668.5" cy="90" fill="#C2C2C2" rx="11" ry="11" style="stroke:#181818;stroke-width:1.0;"/><path d="M670.8438,85.6719 C669.9063,85.2344 669.3125,85.0938 668.4375,85.0938 C665.8125,85.0938 663.8125,87.1719 663.8125,89.8906 L663.8125,91.0156 C663.8125,93.5938 665.9219,95.4844 668.8125,95.4844 C670.0313,95.4844 671.1875,95.1875 671.9375,94.6406 C672.5156,94.2344 672.8438,93.7813 672.8438,93.3906 C672.8438,92.9375 672.4531,92.5469 671.9844,92.5469 C671.7656,92.5469 671.5625,92.625 671.375,92.8125 C670.9219,93.2969 670.9219,93.2969 670.7344,93.3906 C670.3125,93.6563 669.625,93.7813 668.8594,93.7813 C666.8125,93.7813 665.5156,92.6875 665.5156,90.9844 L665.5156,89.8906 C665.5156,88.1094 666.7656,86.7969 668.5,86.7969 C669.0781,86.7969 669.6875,86.9531 670.1563,87.2031 C670.6406,87.4844 670.8125,87.7031 670.9063,88.1094 C670.9688,88.5156 671,88.6406 671.1406,88.7656 C671.2813,88.9063 671.5156,89.0156 671.7344,89.0156 C672,89.0156 672.2656,88.875 672.4375,88.6563 C672.5469,88.5 672.5781,88.3125 672.5781,87.8906 L672.5781,86.4688 C672.5781,86.0313 672.5625,85.9063 672.4688,85.75 C672.3125,85.4844 672.0313,85.3438 671.7344,85.3438 C671.4375,85.3438 671.2344,85.4375 671.0156,85.75 L670.8438,85.6719 Z " fill="#000000"/><text fill="#000000" font-family="sans-serif" font-size="14" lengthAdjust="spacing" textLength="76" x="682.5" y="94.8467">Parameter</text></g><!--class Program--><g id="elem_Program"><rect codeLine="12" fill="#F1F1F1" height="32" id="Program" rx="2.5" ry="2.5" style="stroke:#181818;stroke-width:0.5;" width="93" x="266.5" y="141"/><ellipse cx="281.5" cy="157" fill="#C2C2C2" rx="11" ry="11" style="stroke:#181818;stroke-width:1.0;"/><path d="M283.8438,152.6719 C282.9063,152.2344 282.3125,152.0938 281.4375,152.0938 C278.8125,152.0938 276.8125,154.1719 276.8125,156.8906 L276.8125,158.0156 C276.8125,160.5938 278.9219,162.4844 281.8125,162.4844 C283.0313,162.4844 284.1875,162.1875 284.9375,161.6406 C285.5156,161.2344 285.8438,160.7813 285.8438,160.3906 C285.8438,159.9375 285.4531,159.5469 284.9844,159.5469 C284.7656,159.5469 284.5625,159.625 284.375,159.8125 C283.9219,160.2969 283.9219,160.2969 283.7344,160.3906 C283.3125,160.6563 282.625,160.7813 281.8594,160.7813 C279.8125,160.7813 278.5156,159.6875 278.5156,157.9844 L278.5156,156.8906 C278.5156,155.1094 279.7656,153.7969 281.5,153.7969 C282.0781,153.7969 282.6875,153.9531 283.1563,154.2031 C283.6406,154.4844 283.8125,154.7031 283.9063,155.1094 C283.9688,155.5156 284,155.6406 284.1406,155.7656 C284.2813,155.9063 284.5156,156.0156 284.7344,156.0156 C285,156.0156 285.2656,155.875 285.4375,155.6563 C285.5469,155.5 285.5781,155.3125 285.5781,154.8906 L285.5781,153.4688 C285.5781,153.0313 285.5625,152.9063 285.4688,152.75 C285.3125,152.4844 285.0313,152.3438 284.7344,152.3438 C284.4375,152.3438 284.2344,152.4375 284.0156,152.75 L283.8438,152.6719 Z " fill="#000000"/><text fill="#000000" font-family="sans-serif" font-size="14" lengthAdjust="spacing" textLength="61" x="295.5" y="161.8467">Program</text></g><!--class ProgramFile--><g id="elem_ProgramFile"><rect codeLine="13" fill="#F1F1F1" height="32" id="ProgramFile" rx="2.5" ry="2.5" style="stroke:#181818;stroke-width:0.5;" width="118" x="439" y="141"/><ellipse cx="454" cy="157" fill="#C2C2C2" rx="11" ry="11" style="stroke:#181818;stroke-width:1.0;"/><path d="M456.3438,152.6719 C455.4063,152.2344 454.8125,152.0938 453.9375,152.0938 C451.3125,152.0938 449.3125,154.1719 449.3125,156.8906 L449.3125,158.0156 C449.3125,160.5938 451.4219,162.4844 454.3125,162.4844 C455.5313,162.4844 456.6875,162.1875 457.4375,161.6406 C458.0156,161.2344 458.3438,160.7813 458.3438,160.3906 C458.3438,159.9375 457.9531,159.5469 457.4844,159.5469 C457.2656,159.5469 457.0625,159.625 456.875,159.8125 C456.4219,160.2969 456.4219,160.2969 456.2344,160.3906 C455.8125,160.6563 455.125,160.7813 454.3594,160.7813 C452.3125,160.7813 451.0156,159.6875 451.0156,157.9844 L451.0156,156.8906 C451.0156,155.1094 452.2656,153.7969 454,153.7969 C454.5781,153.7969 455.1875,153.9531 455.6563,154.2031 C456.1406,154.4844 456.3125,154.7031 456.4063,155.1094 C456.4688,155.5156 456.5,155.6406 456.6406,155.7656 C456.7813,155.9063 457.0156,156.0156 457.2344,156.0156 C457.5,156.0156 457.7656,155.875 457.9375,155.6563 C458.0469,155.5 458.0781,155.3125 458.0781,154.8906 L458.0781,153.4688 C458.0781,153.0313 458.0625,152.9063 457.9688,152.75 C457.8125,152.4844 457.5313,152.3438 457.2344,152.3438 C456.9375,152.3438 456.7344,152.4375 456.5156,152.75 L456.3438,152.6719 Z " fill="#000000"/><text fill="#000000" font-family="sans-serif" font-size="14" lengthAdjust="spacing" textLength="86" x="468" y="161.8467">ProgramFile</text></g><!--class TProgramUnit--><g id="elem_TProgramUnit"><rect codeLine="15" fill="#F1F1F1" height="32" id="TProgramUnit" rx="2.5" ry="2.5" style="stroke:#181818;stroke-width:0.5;" width="130" x="433" y="74"/><ellipse cx="448" cy="90" fill="#B1B1B1" rx="11" ry="11" style="stroke:#181818;stroke-width:1.0;"/><path d="M448.9531,86.7813 L450.6719,86.7813 C451.0625,86.7813 451.25,86.75 451.375,86.6719 C451.6406,86.5156 451.7813,86.2344 451.7813,85.9375 C451.7813,85.6719 451.6719,85.4063 451.4375,85.2344 C451.2656,85.125 451.125,85.0938 450.6719,85.0938 L445.5313,85.0938 C445.0938,85.0938 444.9688,85.1094 444.8125,85.2031 C444.5625,85.3594 444.4063,85.6563 444.4063,85.9375 C444.4063,86.2188 444.5469,86.4688 444.7656,86.6406 C444.9219,86.75 445.1094,86.7813 445.5313,86.7813 L447.25,86.7813 L447.25,93.2969 L445.5313,93.2969 C445.0938,93.2969 444.9688,93.3125 444.8125,93.4219 C444.5625,93.5781 444.4063,93.8594 444.4063,94.1563 C444.4063,94.4063 444.5469,94.6719 444.7656,94.8281 C444.9219,94.9531 445.125,95 445.5313,95 L450.6719,95 C451.4219,95 451.7813,94.7188 451.7813,94.1563 C451.7813,93.875 451.6719,93.625 451.4375,93.4531 C451.2656,93.3281 451.125,93.2969 450.6719,93.2969 L448.9531,93.2969 L448.9531,86.7813 Z " fill="#000000"/><text fill="#000000" font-family="sans-serif" font-size="14" font-style="italic" lengthAdjust="spacing" textLength="98" x="462" y="94.8467">TProgramUnit</text></g><!--class TWithProgramUnits--><g id="elem_TWithProgramUnits"><rect codeLine="16" fill="#F1F1F1" height="32" id="TWithProgramUnits" rx="2.5" ry="2.5" style="stroke:#181818;stroke-width:0.5;" width="169" x="623" y="141"/><ellipse cx="638" cy="157" fill="#B1B1B1" rx="11" ry="11" style="stroke:#181818;stroke-width:1.0;"/><path d="M638.9531,153.7813 L640.6719,153.7813 C641.0625,153.7813 641.25,153.75 641.375,153.6719 C641.6406,153.5156 641.7813,153.2344 641.7813,152.9375 C641.7813,152.6719 641.6719,152.4063 641.4375,152.2344 C641.2656,152.125 641.125,152.0938 640.6719,152.0938 L635.5313,152.0938 C635.0938,152.0938 634.9688,152.1094 634.8125,152.2031 C634.5625,152.3594 634.4063,152.6563 634.4063,152.9375 C634.4063,153.2188 634.5469,153.4688 634.7656,153.6406 C634.9219,153.75 635.1094,153.7813 635.5313,153.7813 L637.25,153.7813 L637.25,160.2969 L635.5313,160.2969 C635.0938,160.2969 634.9688,160.3125 634.8125,160.4219 C634.5625,160.5781 634.4063,160.8594 634.4063,161.1563 C634.4063,161.4063 634.5469,161.6719 634.7656,161.8281 C634.9219,161.9531 635.125,162 635.5313,162 L640.6719,162 C641.4219,162 641.7813,161.7188 641.7813,161.1563 C641.7813,160.875 641.6719,160.625 641.4375,160.4531 C641.2656,160.3281 641.125,160.2969 640.6719,160.2969 L638.9531,160.2969 L638.9531,153.7813 Z " fill="#000000"/><text fill="#000000" font-family="sans-serif" font-size="14" font-style="italic" lengthAdjust="spacing" textLength="137" x="652" y="161.8467">TWithProgramUnits</text></g><!--class SubProgram--><g id="elem_SubProgram"><rect codeLine="17" fill="#F1F1F1" height="32" id="SubProgram" rx="2.5" ry="2.5" style="stroke:#181818;stroke-width:0.5;" width="120" x="253" y="208"/><ellipse cx="268" cy="224" fill="#CDCDCD" rx="11" ry="11" style="stroke:#181818;stroke-width:1.0;"/><path d="M270.0781,225.8125 L270.4688,226.7969 L270.0781,226.7969 C269.625,226.7969 269.5156,226.8125 269.3594,226.9219 C269.1094,227.0781 268.9531,227.3594 268.9531,227.6563 C268.9531,227.9219 269.0938,228.1719 269.3125,228.3281 C269.4531,228.4531 269.6563,228.5 270.0781,228.5 L272.4375,228.5 C272.7969,228.5 273.0156,228.4688 273.1563,228.375 C273.4063,228.2344 273.5625,227.9375 273.5625,227.6563 C273.5625,227.375 273.4219,227.125 273.2031,226.9688 C273.0313,226.8281 272.875,226.7969 272.4063,226.7969 L269.0156,218.5938 L265.3438,218.5938 C264.8906,218.5938 264.7656,218.6094 264.6094,218.7031 C264.3594,218.875 264.2031,219.1563 264.2031,219.4375 C264.2031,219.7188 264.3438,219.9688 264.5625,220.1406 C264.7344,220.25 264.9063,220.2813 265.3438,220.2813 L266.4219,220.2813 L263.7813,226.7969 C263.3594,226.7969 263.2031,226.8125 263.0469,226.9219 C262.7969,227.0781 262.6406,227.3594 262.6406,227.6563 C262.6406,228.2188 263.0156,228.5 263.7656,228.5 L266.0313,228.5 C266.3906,228.5 266.6094,228.4688 266.7344,228.375 C267,228.2344 267.1406,227.9375 267.1406,227.6563 C267.1406,227.375 267.0156,227.125 266.7969,226.9531 C266.625,226.8281 266.4844,226.7969 266.0313,226.7969 L265.6406,226.7969 L266.0313,225.8125 L270.0781,225.8125 Z M269.375,224.1094 L266.7031,224.1094 L268.0469,220.8438 L269.375,224.1094 Z " fill="#000000"/><text fill="#000000" font-family="sans-serif" font-size="14" font-style="italic" lengthAdjust="spacing" textLength="88" x="282" y="228.8467">SubProgram</text></g><!--class Subroutine--><g id="elem_Subroutine"><rect codeLine="18" fill="#F1F1F1" height="32" id="Subroutine" rx="2.5" ry="2.5" style="stroke:#181818;stroke-width:0.5;" width="111" x="44.5" y="208"/><ellipse cx="59.5" cy="224" fill="#C2C2C2" rx="11" ry="11" style="stroke:#181818;stroke-width:1.0;"/><path d="M61.8438,219.6719 C60.9063,219.2344 60.3125,219.0938 59.4375,219.0938 C56.8125,219.0938 54.8125,221.1719 54.8125,223.8906 L54.8125,225.0156 C54.8125,227.5938 56.9219,229.4844 59.8125,229.4844 C61.0313,229.4844 62.1875,229.1875 62.9375,228.6406 C63.5156,228.2344 63.8438,227.7813 63.8438,227.3906 C63.8438,226.9375 63.4531,226.5469 62.9844,226.5469 C62.7656,226.5469 62.5625,226.625 62.375,226.8125 C61.9219,227.2969 61.9219,227.2969 61.7344,227.3906 C61.3125,227.6563 60.625,227.7813 59.8594,227.7813 C57.8125,227.7813 56.5156,226.6875 56.5156,224.9844 L56.5156,223.8906 C56.5156,222.1094 57.7656,220.7969 59.5,220.7969 C60.0781,220.7969 60.6875,220.9531 61.1563,221.2031 C61.6406,221.4844 61.8125,221.7031 61.9063,222.1094 C61.9688,222.5156 62,222.6406 62.1406,222.7656 C62.2813,222.9063 62.5156,223.0156 62.7344,223.0156 C63,223.0156 63.2656,222.875 63.4375,222.6563 C63.5469,222.5 63.5781,222.3125 63.5781,221.8906 L63.5781,220.4688 C63.5781,220.0313 63.5625,219.9063 63.4688,219.75 C63.3125,219.4844 63.0313,219.3438 62.7344,219.3438 C62.4375,219.3438 62.2344,219.4375 62.0156,219.75 L61.8438,219.6719 Z " fill="#000000"/><text fill="#000000" font-family="sans-serif" font-size="14" lengthAdjust="spacing" textLength="79" x="73.5" y="228.8467">Subroutine</text></g><!--class UnresolvedBehavioral--><g id="elem_UnresolvedBehavioral"><rect codeLine="19" fill="#F1F1F1" height="32" id="UnresolvedBehavioral" rx="2.5" ry="2.5" style="stroke:#181818;stroke-width:0.5;" width="186" x="7" y="275"/><ellipse cx="22" cy="291" fill="#C2C2C2" rx="11" ry="11" style="stroke:#181818;stroke-width:1.0;"/><path d="M24.3438,286.6719 C23.4063,286.2344 22.8125,286.0938 21.9375,286.0938 C19.3125,286.0938 17.3125,288.1719 17.3125,290.8906 L17.3125,292.0156 C17.3125,294.5938 19.4219,296.4844 22.3125,296.4844 C23.5313,296.4844 24.6875,296.1875 25.4375,295.6406 C26.0156,295.2344 26.3438,294.7813 26.3438,294.3906 C26.3438,293.9375 25.9531,293.5469 25.4844,293.5469 C25.2656,293.5469 25.0625,293.625 24.875,293.8125 C24.4219,294.2969 24.4219,294.2969 24.2344,294.3906 C23.8125,294.6563 23.125,294.7813 22.3594,294.7813 C20.3125,294.7813 19.0156,293.6875 19.0156,291.9844 L19.0156,290.8906 C19.0156,289.1094 20.2656,287.7969 22,287.7969 C22.5781,287.7969 23.1875,287.9531 23.6563,288.2031 C24.1406,288.4844 24.3125,288.7031 24.4063,289.1094 C24.4688,289.5156 24.5,289.6406 24.6406,289.7656 C24.7813,289.9063 25.0156,290.0156 25.2344,290.0156 C25.5,290.0156 25.7656,289.875 25.9375,289.6563 C26.0469,289.5 26.0781,289.3125 26.0781,288.8906 L26.0781,287.4688 C26.0781,287.0313 26.0625,286.9063 25.9688,286.75 C25.8125,286.4844 25.5313,286.3438 25.2344,286.3438 C24.9375,286.3438 24.7344,286.4375 24.5156,286.75 L24.3438,286.6719 Z " fill="#000000"/><text fill="#000000" font-family="sans-serif" font-size="14" lengthAdjust="spacing" textLength="154" x="36" y="295.8467">UnresolvedBehavioral</text></g><!--class Variable--><g id="elem_Variable"><rect codeLine="20" fill="#F1F1F1" height="32" id="Variable" rx="2.5" ry="2.5" style="stroke:#181818;stroke-width:0.5;" width="91" x="452.5" y="208"/><ellipse cx="467.5" cy="224" fill="#C2C2C2" rx="11" ry="11" style="stroke:#181818;stroke-width:1.0;"/><path d="M469.8438,219.6719 C468.9063,219.2344 468.3125,219.0938 467.4375,219.0938 C464.8125,219.0938 462.8125,221.1719 462.8125,223.8906 L462.8125,225.0156 C462.8125,227.5938 464.9219,229.4844 467.8125,229.4844 C469.0313,229.4844 470.1875,229.1875 470.9375,228.6406 C471.5156,228.2344 471.8438,227.7813 471.8438,227.3906 C471.8438,226.9375 471.4531,226.5469 470.9844,226.5469 C470.7656,226.5469 470.5625,226.625 470.375,226.8125 C469.9219,227.2969 469.9219,227.2969 469.7344,227.3906 C469.3125,227.6563 468.625,227.7813 467.8594,227.7813 C465.8125,227.7813 464.5156,226.6875 464.5156,224.9844 L464.5156,223.8906 C464.5156,222.1094 465.7656,220.7969 467.5,220.7969 C468.0781,220.7969 468.6875,220.9531 469.1563,221.2031 C469.6406,221.4844 469.8125,221.7031 469.9063,222.1094 C469.9688,222.5156 470,222.6406 470.1406,222.7656 C470.2813,222.9063 470.5156,223.0156 470.7344,223.0156 C471,223.0156 471.2656,222.875 471.4375,222.6563 C471.5469,222.5 471.5781,222.3125 471.5781,221.8906 L471.5781,220.4688 C471.5781,220.0313 471.5625,219.9063 471.4688,219.75 C471.3125,219.4844 471.0313,219.3438 470.7344,219.3438 C470.4375,219.3438 470.2344,219.4375 470.0156,219.75 L469.8438,219.6719 Z " fill="#000000"/><text fill="#000000" font-family="sans-serif" font-size="14" lengthAdjust="spacing" textLength="59" x="481.5" y="228.8467">Variable</text></g><!--link BlockData to TProgramUnit--><g id="link_BlockData_TProgramUnit"><path codeLine="22" d="M357.833,39.048 C380.724,47.429 409.136,57.831 434.309,67.048 " fill="none" id="BlockData-to-TProgramUnit" style="stroke:#181818;stroke-width:1.0;"/><polygon fill="none" points="436.834,60.517,453.208,73.967,432.02,73.664,436.834,60.517" style="stroke:#181818;stroke-width:1.0;"/></g><!--link SubProgram to TProgramUnit--><g id="link_SubProgram_TProgramUnit"><path codeLine="24" d="M346.134,207.9342 C355.209,202.759 364.829,196.629 373,190 C404.041,164.815 401.379,147.453 433,123 C436.078,120.62 439.354,118.33 442.733,116.145 " fill="none" id="SubProgram-to-TProgramUnit" style="stroke:#181818;stroke-width:1.0;"/><polygon fill="none" points="439.244,110.077,460.066,106.146,446.239,122.204,439.244,110.077" style="stroke:#181818;stroke-width:1.0;"/></g><!--link Function to SubProgram--><g id="link_Function_SubProgram"><path codeLine="30" d="M147.044,171.621 C174.828,180.443 210.782,191.86 242.027,201.781 " fill="none" id="Function-to-SubProgram" style="stroke:#181818;stroke-width:1.0;"/><polygon fill="none" points="244.308,195.161,261.252,207.8856,240.071,208.5043,244.308,195.161" style="stroke:#181818;stroke-width:1.0;"/></g><!--link Module to TProgramUnit--><g id="link_Module_TProgramUnit"><path codeLine="38" d="M354.614,90 C371.74,90 392.355,90 412.513,90 " fill="none" id="Module-to-TProgramUnit" style="stroke:#181818;stroke-width:1.0;"/><polygon fill="none" points="412.779,83,432.779,90,412.779,97,412.779,83" style="stroke:#181818;stroke-width:1.0;"/></g><!--link Program to TProgramUnit--><g id="link_Program_TProgramUnit"><path codeLine="42" d="M357.833,140.952 C380.724,132.571 409.136,122.169 434.309,112.952 " fill="none" id="Program-to-TProgramUnit" style="stroke:#181818;stroke-width:1.0;"/><polygon fill="none" points="432.02,106.336,453.208,106.033,436.834,119.483,432.02,106.336" style="stroke:#181818;stroke-width:1.0;"/></g><!--link ProgramFile to TWithProgramUnits--><g id="link_ProgramFile_TWithProgramUnits"><path codeLine="47" d="M557.076,157 C571.328,157 587.016,157 602.705,157 " fill="none" id="ProgramFile-to-TWithProgramUnits" style="stroke:#181818;stroke-width:1.0;"/><polygon fill="none" points="602.839,150,622.839,157,602.839,164,602.839,150" style="stroke:#181818;stroke-width:1.0;"/></g><!--link Subroutine to SubProgram--><g id="link_Subroutine_SubProgram"><path codeLine="49" d="M155.612,224 C179.121,224 207.064,224 232.781,224 " fill="none" id="Subroutine-to-SubProgram" style="stroke:#181818;stroke-width:1.0;"/><polygon fill="none" points="232.802,216.9999,252.802,224,232.802,230.9999,232.802,216.9999" style="stroke:#181818;stroke-width:1.0;"/></g><!--link TProgramUnit to TWithProgramUnits--><g id="link_TProgramUnit_TWithProgramUnits"><path codeLine="56" d="M522.803,106.174 C542.983,115.562 573.402,126.804 603.712,136.56 " fill="none" id="TProgramUnit-to-TWithProgramUnits" style="stroke:#181818;stroke-width:1.0;"/><polygon fill="none" points="605.977,129.934,622.989,142.567,601.812,143.3,605.977,129.934" style="stroke:#181818;stroke-width:1.0;"/></g><!--reverse link TWithProgramUnits to TProgramUnit--><g id="link_TWithProgramUnits_TProgramUnit"><path codeLine="63" d="M671.931,135.472 C642.392,122.718 599.107,108.001 563.233,98.151 " fill="none" id="TWithProgramUnits-backto-TProgramUnit" style="stroke:#181818;stroke-width:1.0;"/><polygon fill="#181818" points="684.073,140.983,680.2627,134.8608,673.1459,136.0232,676.9562,142.1455,684.073,140.983" style="stroke:#181818;stroke-width:1.0;"/><text fill="#000000" font-family="sans-serif" font-size="13" lengthAdjust="spacing" textLength="7" x="571.1803" y="112.0352">*</text></g><!--link UnresolvedBehavioral to SubProgram--><g id="link_UnresolvedBehavioral_SubProgram"><path codeLine="58" d="M151.54,274.9518 C178.713,266.3234 212.635,255.5519 242.281,246.1382 " fill="none" id="UnresolvedBehavioral-to-SubProgram" style="stroke:#181818;stroke-width:1.0;"/><polygon fill="none" points="240.327,239.4144,261.507,240.0332,244.564,252.7579,240.327,239.4144" style="stroke:#181818;stroke-width:1.0;"/></g><!--reverse link TProgramUnit to Comment--><g id="link_TProgramUnit_Comment"><path codeLine="64" d="M561.404,69.85 C591.95,59.987 628.213,48.278 656.845,39.033 " fill="none" id="TProgramUnit-backto-Comment" style="stroke:#181818;stroke-width:1.0;"/><polygon fill="#181818" points="548.701,73.952,555.64,75.9143,560.1202,70.2638,553.1812,68.3015,548.701,73.952" style="stroke:#181818;stroke-width:1.0;"/><text fill="#000000" font-family="sans-serif" font-size="13" lengthAdjust="spacing" textLength="7" x="640.5371" y="55.156">*</text></g><!--reverse link SubProgram to Variable--><g id="link_SubProgram_Variable"><path codeLine="65" d="M386.391,224 C408.629,224 432.442,224 452.256,224 " fill="none" id="SubProgram-backto-Variable" style="stroke:#181818;stroke-width:1.0;"/><polygon fill="#181818" points="373.162,224,379.162,228,385.162,224,379.162,220,373.162,224" style="stroke:#181818;stroke-width:1.0;"/><text fill="#000000" font-family="sans-serif" font-size="13" lengthAdjust="spacing" textLength="7" x="437.4077" y="237.2728">*</text></g><!--reverse link TProgramUnit to Parameter--><g id="link_TProgramUnit_Parameter"><path codeLine="66" d="M576.395,90 C602.035,90 629.974,90 653.366,90 " fill="none" id="TProgramUnit-backto-Parameter" style="stroke:#181818;stroke-width:1.0;"/><polygon fill="#181818" points="563.233,90,569.233,94,575.233,90,569.233,86,563.233,90" style="stroke:#181818;stroke-width:1.0;"/><text fill="#000000" font-family="sans-serif" font-size="13" lengthAdjust="spacing" textLength="7" x="638.6214" y="103.0836">*</text></g><!--SRC=[TLJBQiCm43ntlqBqOYZa5mfzXGQIK4ZQdZVo9XQnfI2jGmFz-2grv5XOFkxEx7iaTrJwX1ORqHXjP6LDGu9jIm0rxLcm4LOTAXQbiYHP6GrGgP94GysEh0EGDJeddciZZw_86EmNqpIaELZpLdUndRaoPLjJC3wkrOd9HjkQW_UarbnvVf6uFhLYKDe7xb6Is4wulnLN0yW1xXnRb2msxIwjvHtMjAnqRErJMtAcFbFvJ1MUbR5O1-WBhSATRmhwoSLizlkOzW6t6Xcq6A4BVJRoF-qOUqUtKGUDtDeS_3zdNAMR82nzzZgsxcyNxz9H1WifKcIxlPoeVDEi-0B5GfVqG-Nr9azQLiQ6SDDQ6JoJfEtLiVQxF60dfgARUL3hviY0oHQW4r9kyKM_YuZsCeFfY_Ymczu2llPX_UXZk9jw6k-G5J4kwKprAvt8RqRB2uov8wt2JPAZ4q4nR7sGOSF8T7ryBaj96vx84PvlFiFqI3dsS7yJrTAPSwzkDFqT55778L6YRG0OPHOFivcuVxXFJvwq51dnzneyeWZr5RA1lSh-0000]--></g></svg>