<?xml version="1.0" encoding="UTF-8" standalone="no"?><svg xmlns="http://www.w3.org/2000/svg" xmlns:xlink="http://www.w3.org/1999/xlink" contentStyleType="text/css" height="379px" preserveAspectRatio="none" style="width:964px;height:379px;background:#FFFFFF;" version="1.1" viewBox="0 0 964 379" width="964px" zoomAndPan="magnify"><defs/><g><!--class File--><g id="elem_File"><rect codeLine="7" fill="#F1F1F1" height="32" id="File" rx="2.5" ry="2.5" style="stroke:#181818;stroke-width:0.5;" width="57" x="7" y="189"/><ellipse cx="22" cy="205" fill="#C2C2C2" rx="11" ry="11" style="stroke:#181818;stroke-width:1.0;"/><path d="M24.3438,200.6719 C23.4063,200.2344 22.8125,200.0938 21.9375,200.0938 C19.3125,200.0938 17.3125,202.1719 17.3125,204.8906 L17.3125,206.0156 C17.3125,208.5938 19.4219,210.4844 22.3125,210.4844 C23.5313,210.4844 24.6875,210.1875 25.4375,209.6406 C26.0156,209.2344 26.3438,208.7813 26.3438,208.3906 C26.3438,207.9375 25.9531,207.5469 25.4844,207.5469 C25.2656,207.5469 25.0625,207.625 24.875,207.8125 C24.4219,208.2969 24.4219,208.2969 24.2344,208.3906 C23.8125,208.6563 23.125,208.7813 22.3594,208.7813 C20.3125,208.7813 19.0156,207.6875 19.0156,205.9844 L19.0156,204.8906 C19.0156,203.1094 20.2656,201.7969 22,201.7969 C22.5781,201.7969 23.1875,201.9531 23.6563,202.2031 C24.1406,202.4844 24.3125,202.7031 24.4063,203.1094 C24.4688,203.5156 24.5,203.6406 24.6406,203.7656 C24.7813,203.9063 25.0156,204.0156 25.2344,204.0156 C25.5,204.0156 25.7656,203.875 25.9375,203.6563 C26.0469,203.5 26.0781,203.3125 26.0781,202.8906 L26.0781,201.4688 C26.0781,201.0313 26.0625,200.9063 25.9688,200.75 C25.8125,200.4844 25.5313,200.3438 25.2344,200.3438 C24.9375,200.3438 24.7344,200.4375 24.5156,200.75 L24.3438,200.6719 Z " fill="#000000"/><text fill="#000000" font-family="sans-serif" font-size="14" lengthAdjust="spacing" textLength="25" x="36" y="209.8467">File</text></g><!--class ProgramUnit--><g id="elem_ProgramUnit"><rect codeLine="8" fill="#F1F1F1" height="32" id="ProgramUnit" rx="2.5" ry="2.5" style="stroke:#181818;stroke-width:0.5;" width="122" x="125" y="189"/><ellipse cx="140" cy="205" fill="#C2C2C2" rx="11" ry="11" style="stroke:#181818;stroke-width:1.0;"/><path d="M142.3438,200.6719 C141.4063,200.2344 140.8125,200.0938 139.9375,200.0938 C137.3125,200.0938 135.3125,202.1719 135.3125,204.8906 L135.3125,206.0156 C135.3125,208.5938 137.4219,210.4844 140.3125,210.4844 C141.5313,210.4844 142.6875,210.1875 143.4375,209.6406 C144.0156,209.2344 144.3438,208.7813 144.3438,208.3906 C144.3438,207.9375 143.9531,207.5469 143.4844,207.5469 C143.2656,207.5469 143.0625,207.625 142.875,207.8125 C142.4219,208.2969 142.4219,208.2969 142.2344,208.3906 C141.8125,208.6563 141.125,208.7813 140.3594,208.7813 C138.3125,208.7813 137.0156,207.6875 137.0156,205.9844 L137.0156,204.8906 C137.0156,203.1094 138.2656,201.7969 140,201.7969 C140.5781,201.7969 141.1875,201.9531 141.6563,202.2031 C142.1406,202.4844 142.3125,202.7031 142.4063,203.1094 C142.4688,203.5156 142.5,203.6406 142.6406,203.7656 C142.7813,203.9063 143.0156,204.0156 143.2344,204.0156 C143.5,204.0156 143.7656,203.875 143.9375,203.6563 C144.0469,203.5 144.0781,203.3125 144.0781,202.8906 L144.0781,201.4688 C144.0781,201.0313 144.0625,200.9063 143.9688,200.75 C143.8125,200.4844 143.5313,200.3438 143.2344,200.3438 C142.9375,200.3438 142.7344,200.4375 142.5156,200.75 L142.3438,200.6719 Z " fill="#000000"/><text fill="#000000" font-family="sans-serif" font-size="14" lengthAdjust="spacing" textLength="90" x="154" y="209.8467">ProgramUnit</text></g><!--class Module--><g id="elem_Module"><rect codeLine="9" fill="#F1F1F1" height="32" id="Module" rx="2.5" ry="2.5" style="stroke:#181818;stroke-width:0.5;" width="83" x="318.5" y="68"/><ellipse cx="333.5" cy="84" fill="#C2C2C2" rx="11" ry="11" style="stroke:#181818;stroke-width:1.0;"/><path d="M335.8438,79.6719 C334.9063,79.2344 334.3125,79.0938 333.4375,79.0938 C330.8125,79.0938 328.8125,81.1719 328.8125,83.8906 L328.8125,85.0156 C328.8125,87.5938 330.9219,89.4844 333.8125,89.4844 C335.0313,89.4844 336.1875,89.1875 336.9375,88.6406 C337.5156,88.2344 337.8438,87.7813 337.8438,87.3906 C337.8438,86.9375 337.4531,86.5469 336.9844,86.5469 C336.7656,86.5469 336.5625,86.625 336.375,86.8125 C335.9219,87.2969 335.9219,87.2969 335.7344,87.3906 C335.3125,87.6563 334.625,87.7813 333.8594,87.7813 C331.8125,87.7813 330.5156,86.6875 330.5156,84.9844 L330.5156,83.8906 C330.5156,82.1094 331.7656,80.7969 333.5,80.7969 C334.0781,80.7969 334.6875,80.9531 335.1563,81.2031 C335.6406,81.4844 335.8125,81.7031 335.9063,82.1094 C335.9688,82.5156 336,82.6406 336.1406,82.7656 C336.2813,82.9063 336.5156,83.0156 336.7344,83.0156 C337,83.0156 337.2656,82.875 337.4375,82.6563 C337.5469,82.5 337.5781,82.3125 337.5781,81.8906 L337.5781,80.4688 C337.5781,80.0313 337.5625,79.9063 337.4688,79.75 C337.3125,79.4844 337.0313,79.3438 336.7344,79.3438 C336.4375,79.3438 336.2344,79.4375 336.0156,79.75 L335.8438,79.6719 Z " fill="#000000"/><text fill="#000000" font-family="sans-serif" font-size="14" lengthAdjust="spacing" textLength="51" x="347.5" y="88.8467">Module</text></g><!--class Program--><g id="elem_Program"><rect codeLine="10" fill="#F1F1F1" height="32" id="Program" rx="2.5" ry="2.5" style="stroke:#181818;stroke-width:0.5;" width="93" x="510.5" y="90"/><ellipse cx="525.5" cy="106" fill="#C2C2C2" rx="11" ry="11" style="stroke:#181818;stroke-width:1.0;"/><path d="M527.8438,101.6719 C526.9063,101.2344 526.3125,101.0938 525.4375,101.0938 C522.8125,101.0938 520.8125,103.1719 520.8125,105.8906 L520.8125,107.0156 C520.8125,109.5938 522.9219,111.4844 525.8125,111.4844 C527.0313,111.4844 528.1875,111.1875 528.9375,110.6406 C529.5156,110.2344 529.8438,109.7813 529.8438,109.3906 C529.8438,108.9375 529.4531,108.5469 528.9844,108.5469 C528.7656,108.5469 528.5625,108.625 528.375,108.8125 C527.9219,109.2969 527.9219,109.2969 527.7344,109.3906 C527.3125,109.6563 526.625,109.7813 525.8594,109.7813 C523.8125,109.7813 522.5156,108.6875 522.5156,106.9844 L522.5156,105.8906 C522.5156,104.1094 523.7656,102.7969 525.5,102.7969 C526.0781,102.7969 526.6875,102.9531 527.1563,103.2031 C527.6406,103.4844 527.8125,103.7031 527.9063,104.1094 C527.9688,104.5156 528,104.6406 528.1406,104.7656 C528.2813,104.9063 528.5156,105.0156 528.7344,105.0156 C529,105.0156 529.2656,104.875 529.4375,104.6563 C529.5469,104.5 529.5781,104.3125 529.5781,103.8906 L529.5781,102.4688 C529.5781,102.0313 529.5625,101.9063 529.4688,101.75 C529.3125,101.4844 529.0313,101.3438 528.7344,101.3438 C528.4375,101.3438 528.2344,101.4375 528.0156,101.75 L527.8438,101.6719 Z " fill="#000000"/><text fill="#000000" font-family="sans-serif" font-size="14" lengthAdjust="spacing" textLength="61" x="539.5" y="110.8467">Program</text></g><!--class Variable--><g id="elem_Variable"><rect codeLine="11" fill="#F1F1F1" height="32" id="Variable" rx="2.5" ry="2.5" style="stroke:#181818;stroke-width:0.5;" width="91" x="688" y="55"/><ellipse cx="703" cy="71" fill="#C2C2C2" rx="11" ry="11" style="stroke:#181818;stroke-width:1.0;"/><path d="M705.3438,66.6719 C704.4063,66.2344 703.8125,66.0938 702.9375,66.0938 C700.3125,66.0938 698.3125,68.1719 698.3125,70.8906 L698.3125,72.0156 C698.3125,74.5938 700.4219,76.4844 703.3125,76.4844 C704.5313,76.4844 705.6875,76.1875 706.4375,75.6406 C707.0156,75.2344 707.3438,74.7813 707.3438,74.3906 C707.3438,73.9375 706.9531,73.5469 706.4844,73.5469 C706.2656,73.5469 706.0625,73.625 705.875,73.8125 C705.4219,74.2969 705.4219,74.2969 705.2344,74.3906 C704.8125,74.6563 704.125,74.7813 703.3594,74.7813 C701.3125,74.7813 700.0156,73.6875 700.0156,71.9844 L700.0156,70.8906 C700.0156,69.1094 701.2656,67.7969 703,67.7969 C703.5781,67.7969 704.1875,67.9531 704.6563,68.2031 C705.1406,68.4844 705.3125,68.7031 705.4063,69.1094 C705.4688,69.5156 705.5,69.6406 705.6406,69.7656 C705.7813,69.9063 706.0156,70.0156 706.2344,70.0156 C706.5,70.0156 706.7656,69.875 706.9375,69.6563 C707.0469,69.5 707.0781,69.3125 707.0781,68.8906 L707.0781,67.4688 C707.0781,67.0313 707.0625,66.9063 706.9688,66.75 C706.8125,66.4844 706.5313,66.3438 706.2344,66.3438 C705.9375,66.3438 705.7344,66.4375 705.5156,66.75 L705.3438,66.6719 Z " fill="#000000"/><text fill="#000000" font-family="sans-serif" font-size="14" lengthAdjust="spacing" textLength="59" x="717" y="75.8467">Variable</text></g><!--class SubProgram--><g id="elem_SubProgram"><rect codeLine="12" fill="#F1F1F1" height="32" id="SubProgram" rx="2.5" ry="2.5" style="stroke:#181818;stroke-width:0.5;" width="120" x="497" y="219"/><ellipse cx="512" cy="235" fill="#CDCDCD" rx="11" ry="11" style="stroke:#181818;stroke-width:1.0;"/><path d="M514.0781,236.8125 L514.4688,237.7969 L514.0781,237.7969 C513.625,237.7969 513.5156,237.8125 513.3594,237.9219 C513.1094,238.0781 512.9531,238.3594 512.9531,238.6563 C512.9531,238.9219 513.0938,239.1719 513.3125,239.3281 C513.4531,239.4531 513.6563,239.5 514.0781,239.5 L516.4375,239.5 C516.7969,239.5 517.0156,239.4688 517.1563,239.375 C517.4063,239.2344 517.5625,238.9375 517.5625,238.6563 C517.5625,238.375 517.4219,238.125 517.2031,237.9688 C517.0313,237.8281 516.875,237.7969 516.4063,237.7969 L513.0156,229.5938 L509.3438,229.5938 C508.8906,229.5938 508.7656,229.6094 508.6094,229.7031 C508.3594,229.875 508.2031,230.1563 508.2031,230.4375 C508.2031,230.7188 508.3438,230.9688 508.5625,231.1406 C508.7344,231.25 508.9063,231.2813 509.3438,231.2813 L510.4219,231.2813 L507.7813,237.7969 C507.3594,237.7969 507.2031,237.8125 507.0469,237.9219 C506.7969,238.0781 506.6406,238.3594 506.6406,238.6563 C506.6406,239.2188 507.0156,239.5 507.7656,239.5 L510.0313,239.5 C510.3906,239.5 510.6094,239.4688 510.7344,239.375 C511,239.2344 511.1406,238.9375 511.1406,238.6563 C511.1406,238.375 511.0156,238.125 510.7969,237.9531 C510.625,237.8281 510.4844,237.7969 510.0313,237.7969 L509.6406,237.7969 L510.0313,236.8125 L514.0781,236.8125 Z M513.375,235.1094 L510.7031,235.1094 L512.0469,231.8438 L513.375,235.1094 Z " fill="#000000"/><text fill="#000000" font-family="sans-serif" font-size="14" font-style="italic" lengthAdjust="spacing" textLength="88" x="526" y="239.8467">SubProgram</text></g><!--class Parameter--><g id="elem_Parameter"><rect codeLine="13" fill="#F1F1F1" height="32" id="Parameter" rx="2.5" ry="2.5" style="stroke:#181818;stroke-width:0.5;" width="108" x="679.5" y="273"/><ellipse cx="694.5" cy="289" fill="#C2C2C2" rx="11" ry="11" style="stroke:#181818;stroke-width:1.0;"/><path d="M696.8438,284.6719 C695.9063,284.2344 695.3125,284.0938 694.4375,284.0938 C691.8125,284.0938 689.8125,286.1719 689.8125,288.8906 L689.8125,290.0156 C689.8125,292.5938 691.9219,294.4844 694.8125,294.4844 C696.0313,294.4844 697.1875,294.1875 697.9375,293.6406 C698.5156,293.2344 698.8438,292.7813 698.8438,292.3906 C698.8438,291.9375 698.4531,291.5469 697.9844,291.5469 C697.7656,291.5469 697.5625,291.625 697.375,291.8125 C696.9219,292.2969 696.9219,292.2969 696.7344,292.3906 C696.3125,292.6563 695.625,292.7813 694.8594,292.7813 C692.8125,292.7813 691.5156,291.6875 691.5156,289.9844 L691.5156,288.8906 C691.5156,287.1094 692.7656,285.7969 694.5,285.7969 C695.0781,285.7969 695.6875,285.9531 696.1563,286.2031 C696.6406,286.4844 696.8125,286.7031 696.9063,287.1094 C696.9688,287.5156 697,287.6406 697.1406,287.7656 C697.2813,287.9063 697.5156,288.0156 697.7344,288.0156 C698,288.0156 698.2656,287.875 698.4375,287.6563 C698.5469,287.5 698.5781,287.3125 698.5781,286.8906 L698.5781,285.4688 C698.5781,285.0313 698.5625,284.9063 698.4688,284.75 C698.3125,284.4844 698.0313,284.3438 697.7344,284.3438 C697.4375,284.3438 697.2344,284.4375 697.0156,284.75 L696.8438,284.6719 Z " fill="#000000"/><text fill="#000000" font-family="sans-serif" font-size="14" lengthAdjust="spacing" textLength="76" x="708.5" y="293.8467">Parameter</text></g><!--class Function--><g id="elem_Function"><rect codeLine="14" fill="#F1F1F1" height="32" id="Function" rx="2.5" ry="2.5" style="stroke:#181818;stroke-width:0.5;" width="94" x="686.5" y="340"/><ellipse cx="701.5" cy="356" fill="#C2C2C2" rx="11" ry="11" style="stroke:#181818;stroke-width:1.0;"/><path d="M703.8438,351.6719 C702.9063,351.2344 702.3125,351.0938 701.4375,351.0938 C698.8125,351.0938 696.8125,353.1719 696.8125,355.8906 L696.8125,357.0156 C696.8125,359.5938 698.9219,361.4844 701.8125,361.4844 C703.0313,361.4844 704.1875,361.1875 704.9375,360.6406 C705.5156,360.2344 705.8438,359.7813 705.8438,359.3906 C705.8438,358.9375 705.4531,358.5469 704.9844,358.5469 C704.7656,358.5469 704.5625,358.625 704.375,358.8125 C703.9219,359.2969 703.9219,359.2969 703.7344,359.3906 C703.3125,359.6563 702.625,359.7813 701.8594,359.7813 C699.8125,359.7813 698.5156,358.6875 698.5156,356.9844 L698.5156,355.8906 C698.5156,354.1094 699.7656,352.7969 701.5,352.7969 C702.0781,352.7969 702.6875,352.9531 703.1563,353.2031 C703.6406,353.4844 703.8125,353.7031 703.9063,354.1094 C703.9688,354.5156 704,354.6406 704.1406,354.7656 C704.2813,354.9063 704.5156,355.0156 704.7344,355.0156 C705,355.0156 705.2656,354.875 705.4375,354.6563 C705.5469,354.5 705.5781,354.3125 705.5781,353.8906 L705.5781,352.4688 C705.5781,352.0313 705.5625,351.9063 705.4688,351.75 C705.3125,351.4844 705.0313,351.3438 704.7344,351.3438 C704.4375,351.3438 704.2344,351.4375 704.0156,351.75 L703.8438,351.6719 Z " fill="#000000"/><text fill="#000000" font-family="sans-serif" font-size="14" lengthAdjust="spacing" textLength="62" x="715.5" y="360.8467">Function</text></g><!--class Subroutine--><g id="elem_Subroutine"><rect codeLine="15" fill="#F1F1F1" height="32" id="Subroutine" rx="2.5" ry="2.5" style="stroke:#181818;stroke-width:0.5;" width="111" x="678" y="206"/><ellipse cx="693" cy="222" fill="#C2C2C2" rx="11" ry="11" style="stroke:#181818;stroke-width:1.0;"/><path d="M695.3438,217.6719 C694.4063,217.2344 693.8125,217.0938 692.9375,217.0938 C690.3125,217.0938 688.3125,219.1719 688.3125,221.8906 L688.3125,223.0156 C688.3125,225.5938 690.4219,227.4844 693.3125,227.4844 C694.5313,227.4844 695.6875,227.1875 696.4375,226.6406 C697.0156,226.2344 697.3438,225.7813 697.3438,225.3906 C697.3438,224.9375 696.9531,224.5469 696.4844,224.5469 C696.2656,224.5469 696.0625,224.625 695.875,224.8125 C695.4219,225.2969 695.4219,225.2969 695.2344,225.3906 C694.8125,225.6563 694.125,225.7813 693.3594,225.7813 C691.3125,225.7813 690.0156,224.6875 690.0156,222.9844 L690.0156,221.8906 C690.0156,220.1094 691.2656,218.7969 693,218.7969 C693.5781,218.7969 694.1875,218.9531 694.6563,219.2031 C695.1406,219.4844 695.3125,219.7031 695.4063,220.1094 C695.4688,220.5156 695.5,220.6406 695.6406,220.7656 C695.7813,220.9063 696.0156,221.0156 696.2344,221.0156 C696.5,221.0156 696.7656,220.875 696.9375,220.6563 C697.0469,220.5 697.0781,220.3125 697.0781,219.8906 L697.0781,218.4688 C697.0781,218.0313 697.0625,217.9063 696.9688,217.75 C696.8125,217.4844 696.5313,217.3438 696.2344,217.3438 C695.9375,217.3438 695.7344,217.4375 695.5156,217.75 L695.3438,217.6719 Z " fill="#000000"/><text fill="#000000" font-family="sans-serif" font-size="14" lengthAdjust="spacing" textLength="79" x="707" y="226.8467">Subroutine</text></g><!--class Body--><g id="elem_Body"><rect codeLine="16" fill="#F1F1F1" height="32" id="Body" rx="2.5" ry="2.5" style="stroke:#181818;stroke-width:0.5;" width="68" x="699.5" y="130"/><ellipse cx="714.5" cy="146" fill="#C2C2C2" rx="11" ry="11" style="stroke:#181818;stroke-width:1.0;"/><path d="M716.8438,141.6719 C715.9063,141.2344 715.3125,141.0938 714.4375,141.0938 C711.8125,141.0938 709.8125,143.1719 709.8125,145.8906 L709.8125,147.0156 C709.8125,149.5938 711.9219,151.4844 714.8125,151.4844 C716.0313,151.4844 717.1875,151.1875 717.9375,150.6406 C718.5156,150.2344 718.8438,149.7813 718.8438,149.3906 C718.8438,148.9375 718.4531,148.5469 717.9844,148.5469 C717.7656,148.5469 717.5625,148.625 717.375,148.8125 C716.9219,149.2969 716.9219,149.2969 716.7344,149.3906 C716.3125,149.6563 715.625,149.7813 714.8594,149.7813 C712.8125,149.7813 711.5156,148.6875 711.5156,146.9844 L711.5156,145.8906 C711.5156,144.1094 712.7656,142.7969 714.5,142.7969 C715.0781,142.7969 715.6875,142.9531 716.1563,143.2031 C716.6406,143.4844 716.8125,143.7031 716.9063,144.1094 C716.9688,144.5156 717,144.6406 717.1406,144.7656 C717.2813,144.9063 717.5156,145.0156 717.7344,145.0156 C718,145.0156 718.2656,144.875 718.4375,144.6563 C718.5469,144.5 718.5781,144.3125 718.5781,143.8906 L718.5781,142.4688 C718.5781,142.0313 718.5625,141.9063 718.4688,141.75 C718.3125,141.4844 718.0313,141.3438 717.7344,141.3438 C717.4375,141.3438 717.2344,141.4375 717.0156,141.75 L716.8438,141.6719 Z " fill="#000000"/><text fill="#000000" font-family="sans-serif" font-size="14" lengthAdjust="spacing" textLength="36" x="728.5" y="150.8467">Body</text></g><!--class Access--><g id="elem_Access"><rect codeLine="17" fill="#F1F1F1" height="32" id="Access" rx="2.5" ry="2.5" style="stroke:#181818;stroke-width:0.5;" width="81" x="863" y="97"/><ellipse cx="878" cy="113" fill="#C2C2C2" rx="11" ry="11" style="stroke:#181818;stroke-width:1.0;"/><path d="M880.3438,108.6719 C879.4063,108.2344 878.8125,108.0938 877.9375,108.0938 C875.3125,108.0938 873.3125,110.1719 873.3125,112.8906 L873.3125,114.0156 C873.3125,116.5938 875.4219,118.4844 878.3125,118.4844 C879.5313,118.4844 880.6875,118.1875 881.4375,117.6406 C882.0156,117.2344 882.3438,116.7813 882.3438,116.3906 C882.3438,115.9375 881.9531,115.5469 881.4844,115.5469 C881.2656,115.5469 881.0625,115.625 880.875,115.8125 C880.4219,116.2969 880.4219,116.2969 880.2344,116.3906 C879.8125,116.6563 879.125,116.7813 878.3594,116.7813 C876.3125,116.7813 875.0156,115.6875 875.0156,113.9844 L875.0156,112.8906 C875.0156,111.1094 876.2656,109.7969 878,109.7969 C878.5781,109.7969 879.1875,109.9531 879.6563,110.2031 C880.1406,110.4844 880.3125,110.7031 880.4063,111.1094 C880.4688,111.5156 880.5,111.6406 880.6406,111.7656 C880.7813,111.9063 881.0156,112.0156 881.2344,112.0156 C881.5,112.0156 881.7656,111.875 881.9375,111.6563 C882.0469,111.5 882.0781,111.3125 882.0781,110.8906 L882.0781,109.4688 C882.0781,109.0313 882.0625,108.9063 881.9688,108.75 C881.8125,108.4844 881.5313,108.3438 881.2344,108.3438 C880.9375,108.3438 880.7344,108.4375 880.5156,108.75 L880.3438,108.6719 Z " fill="#000000"/><text fill="#000000" font-family="sans-serif" font-size="14" lengthAdjust="spacing" textLength="49" x="892" y="117.8467">Access</text></g><!--class Invocation--><g id="elem_Invocation"><rect codeLine="18" fill="#F1F1F1" height="32" id="Invocation" rx="2.5" ry="2.5" style="stroke:#181818;stroke-width:0.5;" width="107" x="850" y="164"/><ellipse cx="865" cy="180" fill="#C2C2C2" rx="11" ry="11" style="stroke:#181818;stroke-width:1.0;"/><path d="M867.3438,175.6719 C866.4063,175.2344 865.8125,175.0938 864.9375,175.0938 C862.3125,175.0938 860.3125,177.1719 860.3125,179.8906 L860.3125,181.0156 C860.3125,183.5938 862.4219,185.4844 865.3125,185.4844 C866.5313,185.4844 867.6875,185.1875 868.4375,184.6406 C869.0156,184.2344 869.3438,183.7813 869.3438,183.3906 C869.3438,182.9375 868.9531,182.5469 868.4844,182.5469 C868.2656,182.5469 868.0625,182.625 867.875,182.8125 C867.4219,183.2969 867.4219,183.2969 867.2344,183.3906 C866.8125,183.6563 866.125,183.7813 865.3594,183.7813 C863.3125,183.7813 862.0156,182.6875 862.0156,180.9844 L862.0156,179.8906 C862.0156,178.1094 863.2656,176.7969 865,176.7969 C865.5781,176.7969 866.1875,176.9531 866.6563,177.2031 C867.1406,177.4844 867.3125,177.7031 867.4063,178.1094 C867.4688,178.5156 867.5,178.6406 867.6406,178.7656 C867.7813,178.9063 868.0156,179.0156 868.2344,179.0156 C868.5,179.0156 868.7656,178.875 868.9375,178.6563 C869.0469,178.5 869.0781,178.3125 869.0781,177.8906 L869.0781,176.4688 C869.0781,176.0313 869.0625,175.9063 868.9688,175.75 C868.8125,175.4844 868.5313,175.3438 868.2344,175.3438 C867.9375,175.3438 867.7344,175.4375 867.5156,175.75 L867.3438,175.6719 Z " fill="#000000"/><text fill="#000000" font-family="sans-serif" font-size="14" lengthAdjust="spacing" textLength="75" x="879" y="184.8467">Invocation</text></g><!--class Comment--><g id="elem_Comment"><rect codeLine="19" fill="#F1F1F1" height="32" id="Comment" rx="2.5" ry="2.5" style="stroke:#181818;stroke-width:0.5;" width="104" x="308" y="293"/><ellipse cx="323" cy="309" fill="#C2C2C2" rx="11" ry="11" style="stroke:#181818;stroke-width:1.0;"/><path d="M325.3438,304.6719 C324.4063,304.2344 323.8125,304.0938 322.9375,304.0938 C320.3125,304.0938 318.3125,306.1719 318.3125,308.8906 L318.3125,310.0156 C318.3125,312.5938 320.4219,314.4844 323.3125,314.4844 C324.5313,314.4844 325.6875,314.1875 326.4375,313.6406 C327.0156,313.2344 327.3438,312.7813 327.3438,312.3906 C327.3438,311.9375 326.9531,311.5469 326.4844,311.5469 C326.2656,311.5469 326.0625,311.625 325.875,311.8125 C325.4219,312.2969 325.4219,312.2969 325.2344,312.3906 C324.8125,312.6563 324.125,312.7813 323.3594,312.7813 C321.3125,312.7813 320.0156,311.6875 320.0156,309.9844 L320.0156,308.8906 C320.0156,307.1094 321.2656,305.7969 323,305.7969 C323.5781,305.7969 324.1875,305.9531 324.6563,306.2031 C325.1406,306.4844 325.3125,306.7031 325.4063,307.1094 C325.4688,307.5156 325.5,307.6406 325.6406,307.7656 C325.7813,307.9063 326.0156,308.0156 326.2344,308.0156 C326.5,308.0156 326.7656,307.875 326.9375,307.6563 C327.0469,307.5 327.0781,307.3125 327.0781,306.8906 L327.0781,305.4688 C327.0781,305.0313 327.0625,304.9063 326.9688,304.75 C326.8125,304.4844 326.5313,304.3438 326.2344,304.3438 C325.9375,304.3438 325.7344,304.4375 325.5156,304.75 L325.3438,304.6719 Z " fill="#000000"/><text fill="#000000" font-family="sans-serif" font-size="14" lengthAdjust="spacing" textLength="72" x="337" y="313.8467">Comment</text></g><!--reverse link File to File--><g id="link_File_File"><path codeLine="21" d="M25.7357,183.755 C22.6783,168.801 25.933,154 35.5,154 C46.1484,154 48.9769,172.336 43.9855,188.811 " fill="none" id="File-backto-File" style="stroke:#181818;stroke-width:1.0;"/><polygon fill="#181818" points="27.0145,188.811,28.6861,179.105,25.7888,183.9636,20.9302,181.0662,27.0145,188.811" style="stroke:#181818;stroke-width:1.0;"/><text fill="#000000" font-family="sans-serif" font-size="13" lengthAdjust="spacing" textLength="45" x="13" y="145.0669">include</text><text fill="#000000" font-family="sans-serif" font-size="13" lengthAdjust="spacing" textLength="7" x="16.0443" y="178.0529">*</text></g><!--reverse link File to ProgramUnit--><g id="link_File_ProgramUnit"><path codeLine="22" d="M77.3928,205 C92.083,205 108.972,205 124.951,205 " fill="none" id="File-backto-ProgramUnit" style="stroke:#181818;stroke-width:1.0;"/><polygon fill="#181818" points="64.0837,205,70.0837,209,76.0837,205,70.0837,201,64.0837,205" style="stroke:#181818;stroke-width:1.0;"/><text fill="#000000" font-family="sans-serif" font-size="13" lengthAdjust="spacing" textLength="7" x="110.0841" y="217.9891">*</text></g><!--reverse link ProgramUnit to Module--><g id="link_ProgramUnit_Module"><path codeLine="23" d="M226.595,177.146 C260.497,153.295 308.135,119.783 336.065,100.134 " fill="none" id="ProgramUnit-backto-Module" style="stroke:#181818;stroke-width:1.0;"/><polygon fill="none" points="230.226,183.15,209.84,188.932,222.17,171.699,230.226,183.15" style="stroke:#181818;stroke-width:1.0;"/></g><!--reverse link ProgramUnit to SubProgram--><g id="link_ProgramUnit_SubProgram"><path codeLine="24" d="M267.117,211.514 C336.276,217.136 434.599,225.13 496.835,230.19 " fill="none" id="ProgramUnit-backto-SubProgram" style="stroke:#181818;stroke-width:1.0;"/><polygon fill="none" points="266.474,218.485,247.107,209.887,267.609,204.531,266.474,218.485" style="stroke:#181818;stroke-width:1.0;"/></g><!--reverse link ProgramUnit to Program--><g id="link_ProgramUnit_Program"><path codeLine="25" d="M266.242,183.74 C340.683,163.768 449.478,134.579 510.374,118.241 " fill="none" id="ProgramUnit-backto-Program" style="stroke:#181818;stroke-width:1.0;"/><polygon fill="none" points="267.827,190.562,246.696,188.984,264.199,177.04,267.827,190.562" style="stroke:#181818;stroke-width:1.0;"/></g><!--reverse link ProgramUnit to Comment--><g id="link_ProgramUnit_Comment"><path codeLine="26" d="M219.994,228.672 C236.771,240.37 257.655,254.422 277,266 C292.862,275.4934 311.02,285.1348 326.211,292.8756 " fill="none" id="ProgramUnit-backto-Comment" style="stroke:#181818;stroke-width:1.0;"/><polygon fill="#181818" points="209.105,221.009,211.7098,227.7332,218.9187,227.915,216.3138,221.1908,209.105,221.009" style="stroke:#181818;stroke-width:1.0;"/><text fill="#000000" font-family="sans-serif" font-size="13" lengthAdjust="spacing" textLength="7" x="306.3929" y="281.8444">*</text></g><!--reverse link Module to Module--><g id="link_Module_Module"><path codeLine="28" d="M346.195,62.755 C341.873,47.801 346.474,33 360,33 C375.055,33 379.054,51.336 371.997,67.811 " fill="none" id="Module-backto-Module" style="stroke:#181818;stroke-width:1.0;"/><polygon fill="#181818" points="348.003,67.811,348.7371,57.9895,346.3185,63.1033,341.2048,60.6847,348.003,67.811" style="stroke:#181818;stroke-width:1.0;"/><text fill="#000000" font-family="sans-serif" font-size="13" lengthAdjust="spacing" textLength="23" x="348.5" y="24.0669">use</text><text fill="#000000" font-family="sans-serif" font-size="13" lengthAdjust="spacing" textLength="7" x="335.8696" y="57.0529">*</text></g><!--reverse link Module to Program--><g id="link_Module_Program"><path codeLine="29" d="M407.188,89.211 C438.369,92.729 479.343,97.352 510.4,100.855 " fill="none" id="Module-backto-Program" style="stroke:#181818;stroke-width:1.0;"/><polygon fill="#181818" points="401.878,88.612,410.3734,93.5948,406.8465,89.172,411.2694,85.6452,401.878,88.612" style="stroke:#181818;stroke-width:1.0;"/><text fill="#000000" font-family="sans-serif" font-size="13" lengthAdjust="spacing" textLength="23" x="443" y="90.0669">use</text></g><!--reverse link Module to Variable--><g id="link_Module_Variable"><path codeLine="31" d="M414.65,72.905 C423.744,71.358 433.116,69.969 442,69 C533.068,59.069 556.52,57.142 648,62 C660.964,62.688 675.001,63.967 687.84,65.349 " fill="none" id="Module-backto-Variable" style="stroke:#181818;stroke-width:1.0;"/><polygon fill="#181818" points="401.616,75.254,408.2304,78.1263,413.4257,73.1255,406.8114,70.2532,401.616,75.254" style="stroke:#181818;stroke-width:1.0;"/><text fill="#000000" font-family="sans-serif" font-size="13" lengthAdjust="spacing" textLength="7" x="673.0051" y="77.7212">*</text></g><!--reverse link Module to SubProgram--><g id="link_Module_SubProgram"><path codeLine="32" d="M392.399,108.314 C432.582,139.43 501.075,192.468 535.282,218.957 " fill="none" id="Module-backto-SubProgram" style="stroke:#181818;stroke-width:1.0;"/><polygon fill="#181818" points="381.868,100.16,384.1631,106.9961,391.3561,107.5068,389.061,100.6707,381.868,100.16" style="stroke:#181818;stroke-width:1.0;"/><text fill="#000000" font-family="sans-serif" font-size="13" lengthAdjust="spacing" textLength="7" x="519.6133" y="207.9538">*</text></g><!--reverse link Program to Variable--><g id="link_Program_Variable"><path codeLine="33" d="M616.753,94.216 C639.982,89.557 666.237,84.291 687.863,79.953 " fill="none" id="Program-backto-Variable" style="stroke:#181818;stroke-width:1.0;"/><polygon fill="#181818" points="603.848,96.804,610.5175,99.5457,615.6136,94.4438,608.9441,91.702,603.848,96.804" style="stroke:#181818;stroke-width:1.0;"/><text fill="#000000" font-family="sans-serif" font-size="13" lengthAdjust="spacing" textLength="7" x="673.0318" y="94.6527">*</text></g><!--reverse link SubProgram to Function--><g id="link_SubProgram_Function"><path codeLine="35" d="M595.075,263.499 C618.487,281.1646 649.576,304.0263 678,323 C686.556,328.7113 696.088,334.6281 704.758,339.8473 " fill="none" id="SubProgram-backto-Function" style="stroke:#181818;stroke-width:1.0;"/><polygon fill="none" points="590.523,268.831,578.841,251.153,598.998,257.688,590.523,268.831" style="stroke:#181818;stroke-width:1.0;"/></g><!--reverse link SubProgram to Subroutine--><g id="link_SubProgram_Subroutine"><path codeLine="36" d="M637.457,229.081 C651.131,228.062 665.062,227.024 677.893,226.068 " fill="none" id="SubProgram-backto-Subroutine" style="stroke:#181818;stroke-width:1.0;"/><polygon fill="none" points="637.543,236.094,617.078,230.599,636.502,222.132,637.543,236.094" style="stroke:#181818;stroke-width:1.0;"/></g><!--reverse link SubProgram to Parameter--><g id="link_SubProgram_Parameter"><path codeLine="38" d="M622.497,254.959 C641.614,260.875 662.298,267.276 680.515,272.913 " fill="none" id="SubProgram-backto-Parameter" style="stroke:#181818;stroke-width:1.0;"/><polygon fill="#181818" points="609.883,251.056,614.4324,256.6509,621.3467,254.6034,616.7973,249.0085,609.883,251.056" style="stroke:#181818;stroke-width:1.0;"/><text fill="#000000" font-family="sans-serif" font-size="13" lengthAdjust="spacing" textLength="7" x="664.5127" y="266.2313">*</text></g><!--reverse link SubProgram to Variable--><g id="link_SubProgram_Variable"><path codeLine="39" d="M581.251,208.937 C604.677,183.229 642.362,143.342 678,112 C687.958,103.242 699.634,94.3 709.619,87.011 " fill="none" id="SubProgram-backto-Variable" style="stroke:#181818;stroke-width:1.0;"/><polygon fill="#181818" points="572.423,218.697,579.4144,216.9307,580.4731,209.7978,573.4816,211.564,572.423,218.697" style="stroke:#181818;stroke-width:1.0;"/><text fill="#000000" font-family="sans-serif" font-size="13" lengthAdjust="spacing" textLength="7" x="693.2068" y="107.1826">*</text></g><!--reverse link Body to Access--><g id="link_Body_Access"><path codeLine="41" d="M780.561,136.952 C806.359,131.885 838.201,125.63 862.876,120.783 " fill="none" id="Body-backto-Access" style="stroke:#181818;stroke-width:1.0;"/><polygon fill="#181818" points="767.691,139.48,774.3495,142.2485,779.466,137.1669,772.8075,134.3985,767.691,139.48" style="stroke:#181818;stroke-width:1.0;"/><text fill="#000000" font-family="sans-serif" font-size="13" lengthAdjust="spacing" textLength="7" x="848.0164" y="135.584">*</text></g><!--reverse link Body to Invocation--><g id="link_Body_Invocation"><path codeLine="42" d="M780.452,155.3 C801.929,159.646 827.613,164.844 849.868,169.348 " fill="none" id="Body-backto-Invocation" style="stroke:#181818;stroke-width:1.0;"/><polygon fill="#181818" points="767.691,152.717,772.7785,157.8275,779.4526,155.097,774.3651,149.9865,767.691,152.717" style="stroke:#181818;stroke-width:1.0;"/><text fill="#000000" font-family="sans-serif" font-size="13" lengthAdjust="spacing" textLength="7" x="834.8338" y="180.981">*</text></g><!--reverse link SubProgram to Body--><g id="link_SubProgram_Body"><path codeLine="44" d="M601.316,212.907 C632.188,197.162 672.989,176.352 700.84,162.147 " fill="none" id="SubProgram-backto-Body" style="stroke:#181818;stroke-width:1.0;"/><polygon fill="#181818" points="589.601,218.883,596.7634,219.7197,600.2905,213.4301,593.1281,212.5934,589.601,218.883" style="stroke:#181818;stroke-width:1.0;"/><text fill="#000000" font-family="sans-serif" font-size="13" lengthAdjust="spacing" textLength="8" x="683.4459" y="180.2905">1</text></g><!--reverse link Program to Body--><g id="link_Program_Body"><path codeLine="45" d="M616.574,119.427 C644.148,125.747 676.022,133.054 699.36,138.404 " fill="none" id="Program-backto-Body" style="stroke:#181818;stroke-width:1.0;"/><polygon fill="#181818" points="603.848,116.51,608.8027,121.7493,615.5447,119.1909,610.59,113.9515,603.848,116.51" style="stroke:#181818;stroke-width:1.0;"/><text fill="#000000" font-family="sans-serif" font-size="13" lengthAdjust="spacing" textLength="8" x="683.4936" y="150.4648">1</text></g><!--SRC=[RPAnQiGm38PtFuN8U713roDBMoXqA1oKTdSSzM8QMqMM2uK-V9FQSNoNRDR_oT8lo-7J-Y_Dse4ZJsPWSWZ24PKQyKD02DXU1e7UCXgnv9KQR8_Wq7N8GIapwX3WoOwOZsUcorJmpLl9oWlryHRdw5sprTq4THU4jH58-clihXFFiqaKvALXzCbEoMUAOltIve7wdtoyDmP3oC6p_oQZgvkFv1nwKMeU0Pf30-tn-3yFdC1wCyOU4pjC-iph0QipGFixPUHXjw0QQGltoDAlE4obYySSdY06N5YxrifW8QLSUV9Ri3MulQFMf6IyxE4ML1kfsVgAPQ5xT6quBtBLyowlnMgdss9tJVeBk-eV]--></g></svg>